<?xml version="1.0" standalone="no"?><!DOCTYPE svg PUBLIC "-//W3C//DTD SVG 1.1//EN"
        "http://www.w3.org/Graphics/SVG/1.1/DTD/svg11.dtd">
<svg t="1613722678792" class="icon" viewBox="0 0 1024 1024" version="1.1" xmlns="http://www.w3.org/2000/svg" p-id="4017"
     xmlns:xlink="http://www.w3.org/1999/xlink" width="128" height="128">
    <defs>
        <style type="text/css"></style>
    </defs>
    <path d="M512 1024C229.702 1024 0 794.298 0 512S229.702 0 512 0s512 229.702 512 512-229.702 512-512 512z m0-975.22C256.559 48.78 48.78 256.559 48.78 512c0 255.441 207.779 463.127 463.22 463.127 255.441 0 463.127-207.686 463.127-463.127S767.441 48.78 512 48.78z"
          p-id="4018"></path>
    <path d="M768 309.807L714.193 256 512.047 458.24 309.807 256 256 309.807 458.24 512 256 714.193 309.807 768 512 565.807 714.147 768l53.806-53.807L565.76 512.047z"
          p-id="4019"></path>
</svg>