<?xml version="1.0" standalone="no"?><!DOCTYPE svg PUBLIC "-//W3C//DTD SVG 1.1//EN" "http://www.w3.org/Graphics/SVG/1.1/DTD/svg11.dtd"><svg t="1613623421978" class="icon" viewBox="0 0 1024 1024" version="1.1" xmlns="http://www.w3.org/2000/svg" p-id="1834" xmlns:xlink="http://www.w3.org/1999/xlink" width="128" height="128"><defs><style type="text/css"></style></defs><path d="M1013.2864 150.7328l-103.427657-103.445943C902.714514 40.142629 893.321143 36.571429 884.000914 36.571429c-9.393371 0-18.7136 3.5712-25.857829 10.7136L340.929829 564.500114l-25.857829 180.999314 181.035886-25.857829 517.178514-517.1968C1027.5712 188.16 1027.5712 165.0176 1013.2864 150.7328zM405.571657 577.428114 819.357257 163.6608l77.571657 77.571657-413.750857 413.767314L405.571657 577.428114zM389.429029 612.964571l58.177829 58.177829-67.893029 9.713371L389.429029 612.964571zM922.786743 215.374629l-77.571657-77.571657 38.785829-38.804114 77.571657 77.589943L922.786743 215.374629z" p-id="1835"></path><path d="M914.285714 438.857143c-20.214857 0-36.571429 16.374857-36.571429 36.571429l0 438.857143L109.714286 914.285714 109.714286 182.857143l475.428571 0c20.214857 0 36.571429-16.374857 36.571429-36.571429s-16.356571-36.571429-36.571429-36.571429L73.142857 109.714286c-20.214857 0-36.571429 16.374857-36.571429 36.571429l0 804.571429c0 20.214857 16.356571 36.571429 36.571429 36.571429l841.142857 0c20.214857 0 36.571429-16.356571 36.571429-36.571429L950.857143 475.428571C950.857143 455.232 934.500571 438.857143 914.285714 438.857143z" p-id="1836"></path></svg>