<?xml version="1.0" standalone="no"?><!DOCTYPE svg PUBLIC "-//W3C//DTD SVG 1.1//EN" "http://www.w3.org/Graphics/SVG/1.1/DTD/svg11.dtd"><svg t="1613611298710" class="icon" viewBox="0 0 1024 1024" version="1.1" xmlns="http://www.w3.org/2000/svg" p-id="4818" xmlns:xlink="http://www.w3.org/1999/xlink" width="200" height="200"><defs><style type="text/css"></style></defs><path d="M951.643 877.547l-210.337-210.335c50.487-64.946 80.56-146.547 80.56-235.199 0-211.793-171.681-383.472-383.563-383.472-211.792 0-383.471 171.679-383.471 383.472 0 211.862 171.679 383.538 383.471 383.538 88.661 0 170.271-30.075 235.218-80.56l210.337 210.339c9.34 9.339 21.614 14.055 33.89 14.055s24.551-4.716 33.892-14.055c18.77-18.77 18.77-49.101 0-67.781v0zM150.725 432.011c0-158.601 128.978-287.58 287.58-287.58 158.691 0 287.671 128.978 287.671 287.58 0 158.668-128.978 287.651-287.671 287.651-158.601 0-287.58-128.978-287.58-287.651v0z" p-id="4819"></path><path d="M397.297 391.004h-100.16c-22.683 0-41.008 18.324-41.008 40.919 0 22.683 18.324 41.094 41.008 41.094h282.333c22.683 0 41.095-18.412 41.007-41.094 0-22.595-18.324-40.919-41.007-40.919v0h-182.173z" p-id="4820"></path></svg>