<?xml version="1.0" encoding="utf-8"?>
<!-- Generator: Adobe Illustrator 16.0.0, SVG Export Plug-In . SVG Version: 6.00 Build 0)  -->
<!DOCTYPE svg PUBLIC "-//W3C//DTD SVG 1.1//EN" "http://www.w3.org/Graphics/SVG/1.1/DTD/svg11.dtd">
<svg version="1.1" id="图层_1" xmlns="http://www.w3.org/2000/svg" xmlns:xlink="http://www.w3.org/1999/xlink" x="0px" y="0px"
	 width="24px" height="24px" viewBox="0 0 24 24" enable-background="new 0 0 24 24" xml:space="preserve">
<g>
	<g>
		<path fill-rule="evenodd" clip-rule="evenodd" fill="#40AF36" d="M0.491,19.508l3.018,3.99h14.98l3.017-3.99H0.491z M21.5,1.492
			L0.5,1.5v17h21V1.492z M5.5,12.5h-4v-1h3v-1h-3v-1h3v-1h-3v-1h4V12.5z M9.5,8.5h-2v3h2v1h-3v-5h3V8.5z M14.5,11.5h-1v1h-2v-1h-1
			v-3h1v-1h2v1h1V11.5z M20.5,12.5h-1v-4h-1v4h-1v-4h-1v4h-1v-5h5V12.5z M11.5,8.5v3h2v-3H11.5z"/>
	</g>
</g>
</svg>
