<?xml version="1.0" encoding="utf-8"?>
<!-- Generator: Adobe Illustrator 16.0.0, SVG Export Plug-In . SVG Version: 6.00 Build 0)  -->
<!DOCTYPE svg PUBLIC "-//W3C//DTD SVG 1.1//EN" "http://www.w3.org/Graphics/SVG/1.1/DTD/svg11.dtd">
<svg version="1.1" id="图层_1" xmlns="http://www.w3.org/2000/svg" xmlns:xlink="http://www.w3.org/1999/xlink" x="0px" y="0px"
	 width="24px" height="24px" viewBox="0 0 24 24" enable-background="new 0 0 24 24" xml:space="preserve">
<g>
	<g>
		<path fill-rule="evenodd" clip-rule="evenodd" fill="#40AF36" d="M8.5,18.469h-1v0.01H3.508v0.996H7.5v1.004H3.508v0.996H7.5
			v1.004H3.508v0.996h4.994v-4.996H8.5V18.469z M14.5,18.469h-1v0.01h-3v-0.01h-1v5h1v-1.994h2V23.5h2v-1h-1v-1.025h1.002v-2.996
			H14.5V18.469z M13.5,20.479h-3v-1.004h3V20.479z M1.498,0.492v17.006H22.5V0.492H1.498z M4.488,5.485h12.99l-2.402-3.021h1.71
			l2.69,3.55l-2.69,3.487h-1.679l2.371-3.021H4.488V5.485z M19.48,12.48H6.49l2.372,3.021H7.182l-2.691-3.487l2.691-3.55h1.71
			L6.49,11.485H19.48V12.48z M15.484,19.453H15.5v3.031h-0.016v0.969H15.5V23.5h0.969v-0.047h3.016v-0.969h-3.016v-3.031h3.016
			v-0.969h-4V19.453z M19.5,22.5h0.969v-3.031H19.5V22.5z"/>
	</g>
</g>
</svg>
