<?xml version="1.0" encoding="utf-8"?>
<!-- Generator: Adobe Illustrator 16.0.0, SVG Export Plug-In . SVG Version: 6.00 Build 0)  -->
<!DOCTYPE svg PUBLIC "-//W3C//DTD SVG 1.1//EN" "http://www.w3.org/Graphics/SVG/1.1/DTD/svg11.dtd">
<svg version="1.1" id="图层_1" xmlns="http://www.w3.org/2000/svg" xmlns:xlink="http://www.w3.org/1999/xlink" x="0px" y="0px"
	 width="24px" height="24px" viewBox="0 0 24 24" enable-background="new 0 0 24 24" xml:space="preserve">
<g>
	<g>
		<path fill-rule="evenodd" clip-rule="evenodd" fill="#40AF36" d="M12,0C5.648,0,0.5,4.022,0.5,8.984s5.148,8.984,11.5,8.984
			s11.5-4.022,11.5-8.984S18.352,0,12,0z M11.99,0.992l2.496,2.983h-1.989v2.988h-0.983V3.976H9.528L11.99,0.992z M3.504,8.985
			V8.002h3.988V6.013l2.983,2.497l-2.983,2.462V8.985H3.504z M11.99,15.977l-2.462-2.983h1.987v-2.989h0.983v2.989h1.989
			L11.99,15.977z M20.465,8.985h-3.989v1.986L13.492,8.51l2.983-2.497v1.989h3.989V8.985z M14.5,18.969h-1v0.01h-3v-0.01h-1v5h1
			v-1.994h2V24h2v-1h-1v-1.025h1.002v-2.996H14.5V18.969z M13.5,20.979h-3v-1.004h3V20.979z M8.5,18.969h-1v0.01H3.508v0.996H7.5
			v1.004H3.508v0.996H7.5v1.004H3.508v0.996h4.994v-4.996H8.5V18.969z M15.484,19.953H15.5v3.031h-0.016v0.969H15.5V24h0.969v-0.047
			h3.016v-0.969h-3.016v-3.031h3.016v-0.969h-4V19.953z M19.5,23h0.969v-3.031H19.5V23z"/>
	</g>
</g>
</svg>
