<?xml version="1.0" encoding="utf-8"?>
<!-- Generator: Adobe Illustrator 16.0.0, SVG Export Plug-In . SVG Version: 6.00 Build 0)  -->
<!DOCTYPE svg PUBLIC "-//W3C//DTD SVG 1.1//EN" "http://www.w3.org/Graphics/SVG/1.1/DTD/svg11.dtd">
<svg version="1.1" id="图层_1" xmlns="http://www.w3.org/2000/svg" xmlns:xlink="http://www.w3.org/1999/xlink" x="0px" y="0px"
	 width="24px" height="24px" viewBox="0 0 24 24" enable-background="new 0 0 24 24" xml:space="preserve">
<g>
	<g>
		<path fill-rule="evenodd" clip-rule="evenodd" fill="#40AF36" d="M20.469,3.469H19.5V6.5h0.969V3.469z M15.5,7.5h0.969V7.453
			h3.016V6.484h-3.016V3.453h3.016V2.484h-4v0.969H15.5v3.031h-0.016v0.969H15.5V7.5z M10.5,5.475h2V7.5h2v-1h-1V5.475h1.002V2.479
			H14.5v-0.01h-1v0.01h-3v-0.01h-1v5h1V5.475z M10.5,3.475h3v1.004h-3V3.475z M1.498,9.501v12.007H22.5V9.501H1.498z M17.458,20.535
			h-1.487l1.508-2.021H4.488V17.52h12.99l-1.477-2.021h1.456l2.019,2.487L17.458,20.535z M19.48,13.514H6.49l1.507,2.021H6.511
			l-2.02-2.55l2.02-2.487h1.455L6.49,12.52H19.48V13.514z M8.502,2.479H8.5v-0.01h-1v0.01H3.508v0.996H7.5v1.004H3.508v0.996H7.5
			v1.004H3.508v0.996h4.994V2.479z"/>
	</g>
</g>
</svg>
