<?xml version="1.0" encoding="utf-8"?>
<!-- Generator: Adobe Illustrator 16.0.0, SVG Export Plug-In . SVG Version: 6.00 Build 0)  -->
<!DOCTYPE svg PUBLIC "-//W3C//DTD SVG 1.1//EN" "http://www.w3.org/Graphics/SVG/1.1/DTD/svg11.dtd">
<svg version="1.1" id="图层_1" xmlns="http://www.w3.org/2000/svg" xmlns:xlink="http://www.w3.org/1999/xlink" x="0px" y="0px"
	 width="24px" height="24px" viewBox="0 0 24 24" enable-background="new 0 0 24 24" xml:space="preserve">
<g>
	<g>
		<path fill-rule="evenodd" clip-rule="evenodd" fill="#40AF36" d="M8.5,18.469h-1v0.01H3.508v0.996H7.5v1.004H3.508v0.996H7.5
			v1.004H3.508v0.996h4.994v-4.996H8.5V18.469z M14.5,18.469h-1v0.01h-3v-0.01h-1v5h1v-1.994h2V23.5h2v-1h-1v-1.025h1.002v-2.996
			H14.5V18.469z M13.5,20.479h-3v-1.004h3V20.479z M15.484,19.453H15.5v3.031h-0.016v0.969H15.5V23.5h0.969v-0.047h3.016v-0.969
			h-3.016v-3.031h3.016v-0.969h-4V19.453z M1.498,0.492v17.006H22.5V0.492H1.498z M5.594,13.625c0,0-2.094-2.159-2.094-5.563
			c0-3.581,2.157-5.656,2.157-5.656l1.031,0.875c0,0-1.844,1.648-1.844,4.75c0,2.977,1.781,4.719,1.781,4.719L5.594,13.625z
			 M6.5,8.063c0-2.362,1.375-3.719,1.375-3.719l1.031,0.875c0,0-1.094,0.961-1.094,2.813c0,1.727,1.031,2.75,1.031,2.75
			l-0.969,0.875C7.875,11.656,6.5,10.281,6.5,8.063z M8.469,16.5l2.762-6.623C10.508,9.575,10,8.863,10,8.031c0-1.104,0.896-2,2-2
			s2,0.896,2,2c0,0.836-0.514,1.551-1.243,1.85l2.711,6.619H8.469z M15.156,10.781c0,0,1.031-1.023,1.031-2.75
			c0-1.852-1.094-2.813-1.094-2.813l1.031-0.875c0,0,1.375,1.356,1.375,3.719c0,2.219-1.375,3.594-1.375,3.594L15.156,10.781z
			 M18.406,13.625l-1.031-0.875c0,0,1.781-1.742,1.781-4.719c0-3.102-1.844-4.75-1.844-4.75l1.031-0.875
			c0,0,2.156,2.075,2.156,5.656C20.5,11.466,18.406,13.625,18.406,13.625z M19.5,22.5h0.969v-3.031H19.5V22.5z"/>
	</g>
</g>
</svg>
