<?xml version="1.0" encoding="utf-8"?>
<!-- Generator: Adobe Illustrator 16.0.0, SVG Export Plug-In . SVG Version: 6.00 Build 0)  -->
<!DOCTYPE svg PUBLIC "-//W3C//DTD SVG 1.1//EN" "http://www.w3.org/Graphics/SVG/1.1/DTD/svg11.dtd">
<svg version="1.1" id="图层_1" xmlns="http://www.w3.org/2000/svg" xmlns:xlink="http://www.w3.org/1999/xlink" x="0px" y="0px"
	 width="24px" height="24px" viewBox="0 0 24 24" enable-background="new 0 0 24 24" xml:space="preserve">
<g>
	<g>
		<path fill-rule="evenodd" clip-rule="evenodd" fill="#40AF36" d="M1.491,19.508l3.018,3.99h14.979l3.018-3.99H1.491z M22.5,1.492
			H1.498v17.006H22.5V1.492z M5.594,14.625c0,0-2.094-2.159-2.094-5.563c0-3.581,2.156-5.656,2.156-5.656l1.031,0.875
			c0,0-1.844,1.648-1.844,4.75c0,2.977,1.781,4.719,1.781,4.719L5.594,14.625z M6.5,9.063c0-2.362,1.375-3.719,1.375-3.719
			l1.031,0.875c0,0-1.094,0.961-1.094,2.813c0,1.727,1.031,2.75,1.031,2.75l-0.969,0.875C7.875,12.656,6.5,11.281,6.5,9.063z
			 M8.469,17.5l2.762-6.623C10.508,10.575,10,9.863,10,9.031c0-1.104,0.896-2,2-2s2,0.896,2,2c0,0.836-0.514,1.551-1.243,1.85
			l2.711,6.619H8.469z M15.156,11.781c0,0,1.031-1.023,1.031-2.75c0-1.852-1.094-2.813-1.094-2.813l1.031-0.875
			c0,0,1.375,1.357,1.375,3.719c0,2.219-1.375,3.594-1.375,3.594L15.156,11.781z M18.406,14.625l-1.031-0.875
			c0,0,1.781-1.742,1.781-4.719c0-3.102-1.844-4.75-1.844-4.75l1.031-0.875c0,0,2.156,2.076,2.156,5.656
			C20.5,12.466,18.406,14.625,18.406,14.625z"/>
	</g>
</g>
</svg>
