<?xml version="1.0" encoding="utf-8"?>
<!-- Generator: Adobe Illustrator 16.0.0, SVG Export Plug-In . SVG Version: 6.00 Build 0)  -->
<!DOCTYPE svg PUBLIC "-//W3C//DTD SVG 1.1//EN" "http://www.w3.org/Graphics/SVG/1.1/DTD/svg11.dtd">
<svg version="1.1" id="图层_1" xmlns="http://www.w3.org/2000/svg" xmlns:xlink="http://www.w3.org/1999/xlink" x="0px" y="0px"
	 width="24px" height="24px" viewBox="0 0 24 24" enable-background="new 0 0 24 24" xml:space="preserve">
<g>
	<g>
		<path fill-rule="evenodd" clip-rule="evenodd" fill="#40AF36" d="M22.5,1.492L1.5,1.5v17h21V1.492z M8.5,12.5h-1v1h-1v3h-1v-3h-1
			v-1h-1v-2h1v2h1v1h1v-1h1v-2h1V12.5z M8.5,9.5h-1v-2h-3v2h-1v-3h1v-2h1v-1h1v1h1v2h1V9.5z M14.5,16.5h-1v-2h-3v2h-1v-3h1v-2h1v-1
			h1v1h1v2h1V16.5z M14.5,6.5h-1v2h-1v1h-1v-1h-1v-2h-1v-2h1v2h1v2h1v-2h1v-2h1V6.5z M20.5,9.5h-1v-2h-3v2h-1v-3h1v-2h1v-1h1v1h1v2
			h1V9.5z M1.491,19.508l3.018,3.99h14.98l3.017-3.99H1.491z M6.5,6.5v-2h-1v2H6.5z M18.5,6.5v-2h-1v2H18.5z M12.5,13.5v-2h-1v2
			H12.5z"/>
	</g>
</g>
</svg>
