<?xml version="1.0" encoding="utf-8"?>
<!-- Generator: Adobe Illustrator 16.0.0, SVG Export Plug-In . SVG Version: 6.00 Build 0)  -->
<!DOCTYPE svg PUBLIC "-//W3C//DTD SVG 1.1//EN" "http://www.w3.org/Graphics/SVG/1.1/DTD/svg11.dtd">
<svg version="1.1" id="图层_1" xmlns="http://www.w3.org/2000/svg" xmlns:xlink="http://www.w3.org/1999/xlink" x="0px" y="0px"
	 width="24px" height="24px" viewBox="0 0 24 24" enable-background="new 0 0 24 24" xml:space="preserve">
<g>
	<g>
		<path fill-rule="evenodd" clip-rule="evenodd" fill="#FC5043" d="M19,14c-2.762,0-5,2.238-5,5s2.238,5,5,5s5-2.238,5-5
			S21.762,14,19,14z M21.121,21.121c-0.391,0.391-1.023,0.391-1.414,0l-2.828-2.828c-0.391-0.391-0.391-1.023,0-1.414
			s1.023-0.391,1.414,0l2.828,2.828C21.512,20.098,21.512,20.73,21.121,21.121z"/>
	</g>
</g>
<g>
	<g>
		<path fill-rule="evenodd" clip-rule="evenodd" fill="#31BD16" d="M0.997,19.043l3.018,3.99h10.526
			c-0.95-1.061-1.533-2.455-1.535-3.99H0.997z M13.006,7.035v-1h-1v3h1v-1h1v-1H13.006z M12.006,14.035h1v-1h1v-1h-1v-1h-1V14.035z
			 M1.003,1.027v17.006h12.092c0.479-2.836,2.938-4.998,5.91-4.998c1.094,0,2.117,0.298,3,0.81V1.027H1.003z M15.006,8.035h-1v1h-1
			v2h1v1h1v1h-1v1h-1v1h-2v-3h-1v1h-1v1h-1v-1h1v-1h1v-1h1v-2h-1v-1h-1v-1h-1v-1h1v1h1v1h1v-4h1v1h1v1h1v1h1V8.035z"/>
	</g>
</g>
</svg>
