<?xml version="1.0" encoding="utf-8"?>
<!-- Generator: Adobe Illustrator 16.0.0, SVG Export Plug-In . SVG Version: 6.00 Build 0)  -->
<!DOCTYPE svg PUBLIC "-//W3C//DTD SVG 1.1//EN" "http://www.w3.org/Graphics/SVG/1.1/DTD/svg11.dtd">
<svg version="1.1" id="图层_1" xmlns="http://www.w3.org/2000/svg" xmlns:xlink="http://www.w3.org/1999/xlink" x="0px" y="0px"
	 width="24px" height="24px" viewBox="0 0 24 24" enable-background="new 0 0 24 24" xml:space="preserve">
<g>
	<g>
		<path fill-rule="evenodd" clip-rule="evenodd" fill="#40AF36" d="M7.5,8.5h3v-2h-3V8.5z M1.491,19.508l3.018,3.99h14.98
			l3.017-3.99H1.491z M7.5,11.5v4h3v-4H7.5z M13.5,4.5v4h3v-4H13.5z M15.5,13.5v-2h-1v2H15.5z M7.5,4.5v1h3v-1H7.5z M22.5,1.492
			L1.5,1.5v17h21V1.492z M11.5,15.5h-1v1h-4v-6h4v1h1V15.5z M11.5,5.5h-1v1h1v2h-1v1h-4v-6h4v1h1V5.5z M17.5,16.5h-1v-2h-3v2h-1v-3
			h1v-2h1v-1h1v1h1v2h1V16.5z M17.5,8.5h-1v1h-3v-1h-1v-4h1v-1h3v1h1V8.5z"/>
	</g>
</g>
</svg>
