<?xml version="1.0" encoding="utf-8"?>
<!-- Generator: Adobe Illustrator 16.0.0, SVG Export Plug-In . SVG Version: 6.00 Build 0)  -->
<!DOCTYPE svg PUBLIC "-//W3C//DTD SVG 1.1//EN" "http://www.w3.org/Graphics/SVG/1.1/DTD/svg11.dtd">
<svg version="1.1" id="图层_1" xmlns="http://www.w3.org/2000/svg" xmlns:xlink="http://www.w3.org/1999/xlink" x="0px" y="0px"
	 width="24px" height="24px" viewBox="0 0 24 24" enable-background="new 0 0 24 24" xml:space="preserve">
<g>
	<g>
		<path fill-rule="evenodd" clip-rule="evenodd" fill="#40AF36" d="M22.5,1.5h-21L1.498,18.498H22.5V1.5z M3.5,8.5v-4h1v-1h4v1h-4v4
			h4v1h-4v-1H3.5z M9.5,16.5h-4v-3h3v-1h-2v-1h3V16.5z M9.5,6.5h3v-1h-2v-1h3v5h-4V6.5z M14.5,16.5h-1v-4h-2v4h-1v-5h4V16.5z
			 M18.5,12.5h-1v3h1v1h-2v-4h-1v-1h1v-1h1v1h1V12.5z M18.5,9.5h-4v-4h3v-2h1V9.5z M1.491,19.508l3.018,3.99h14.98l3.017-3.99H1.491
			z M15.5,8.5h2v-2h-2V8.5z M6.5,15.5h2v-1h-2V15.5z M10.5,8.5h2v-1h-2V8.5z"/>
	</g>
</g>
</svg>
