<?xml version="1.0" encoding="utf-8"?>
<!-- Generator: Adobe Illustrator 16.0.0, SVG Export Plug-In . SVG Version: 6.00 Build 0)  -->
<!DOCTYPE svg PUBLIC "-//W3C//DTD SVG 1.1//EN" "http://www.w3.org/Graphics/SVG/1.1/DTD/svg11.dtd">
<svg version="1.1" id="图层_1" xmlns="http://www.w3.org/2000/svg" xmlns:xlink="http://www.w3.org/1999/xlink" x="0px" y="0px"
	 width="24px" height="24px" viewBox="0 0 24 24" enable-background="new 0 0 24 24" xml:space="preserve">
<g>
	<g>
		<path fill-rule="evenodd" clip-rule="evenodd" fill="#40AF36" d="M11.5,8.5h1v-2h1v-1h-1v-1h-1v1h-1v1h1V8.5z M13.5,10.5h1v1h1v-1
			h3v-1h-3v-1h-1v1h-1V10.5z M12,19.531c-5.581,0-10.23-2.271-11.277-5.692c-0.144,0.523-0.229,1.076-0.229,1.668
			c0,4.974,5.14,8.006,11.481,8.006s11.481-3.032,11.481-8.006c0-0.559-0.08-1.08-0.209-1.578
			C22.148,17.318,17.531,19.531,12,19.531z M12,18.5c6.352,0,11.5-4.029,11.5-9s-5.148-9-11.5-9S0.5,4.529,0.5,9.5
			S5.648,18.5,12,18.5z M6.992,7.484c0.192,0,0.378,0.022,0.562,0.052C7.533,7.358,7.5,7.184,7.5,7c0-2.485,2.015-4.5,4.5-4.5
			s4.5,2.015,4.5,4.5c0,0.173-0.032,0.338-0.051,0.506c0.188-0.031,0.378-0.053,0.574-0.053c1.945,0,3.523,1.577,3.523,3.523
			S18.969,14.5,17.023,14.5c-0.18,0-0.352-0.027-0.523-0.053V14.5h-10v-0.05c-1.702-0.241-3.016-1.689-3.016-3.458
			C3.484,9.055,5.055,7.484,6.992,7.484z M8.5,11.5h1v-1h1v-1h-1v-1h-1v1h-3v1h3V11.5z M12.5,9.5h-1v2h-1v1h1v1h1v-1h1v-1h-1V9.5z"
			/>
	</g>
</g>
</svg>
