<?xml version="1.0" encoding="utf-8"?>
<!-- Generator: Adobe Illustrator 16.0.0, SVG Export Plug-In . SVG Version: 6.00 Build 0)  -->
<!DOCTYPE svg PUBLIC "-//W3C//DTD SVG 1.1//EN" "http://www.w3.org/Graphics/SVG/1.1/DTD/svg11.dtd">
<svg version="1.1" id="图层_1" xmlns="http://www.w3.org/2000/svg" xmlns:xlink="http://www.w3.org/1999/xlink" x="0px" y="0px"
	 width="31.2px" height="17.2px" viewBox="0 0 78 43" enable-background="new 0 0 78 43" xml:space="preserve">
<g>
	<linearGradient id="SVGID_1_" gradientUnits="userSpaceOnUse" x1="39.0005" y1="41.7002" x2="39.0005" y2="1.2998">
		<stop  offset="0" style="stop-color:#E8F8FF"/>
		<stop  offset="0.4159" style="stop-color:#EDFAFF;stop-opacity:0.6382"/>
		<stop  offset="0.9195" style="stop-color:#FCFEFF;stop-opacity:0.2001"/>
		<stop  offset="1" style="stop-color:#FFFFFF;stop-opacity:0.13"/>
	</linearGradient>
	<path fill="url(#SVGID_1_)" d="M11.662,41.7c-6.009,0-10.716-4.57-10.716-10.404c0-5.31,3.851-9.507,9.365-10.209l0.802-0.102
		l0.068-0.806c0.897-10.587,9.857-18.88,20.4-18.88c6.281,0,12.129,2.853,16.044,7.827l0.489,0.621l0.717-0.332
		c1.473-0.682,3.027-1.027,4.621-1.027c4.855,0,9.227,3.275,10.63,7.965l0.209,0.698l0.729,0.015
		c6.862,0.139,12.037,5.41,12.037,12.26c0,6.938-5.394,12.373-12.278,12.373H11.662z"/>
	<path fill="#63C3EE" d="M31.58,2.299c5.972,0,11.533,2.714,15.259,7.445l0.978,1.241l1.434-0.663
		c1.34-0.62,2.754-0.935,4.201-0.935c4.417,0,8.395,2.982,9.672,7.252l0.418,1.397l1.457,0.029
		c6.304,0.128,11.058,4.969,11.058,11.261c0,6.377-4.954,11.373-11.278,11.373H11.662c-5.448,0-9.716-4.131-9.716-9.404
		c0-4.791,3.492-8.581,8.491-9.217l1.604-0.205l0.136-1.611C13.03,10.19,21.553,2.299,31.58,2.299 M31.58,0.299
		c-11.24,0-20.457,8.706-21.396,19.795C4.413,20.829-0.055,25.276-0.055,31.296c0,6.525,5.246,11.404,11.716,11.404h53.116
		c7.333,0,13.278-5.76,13.278-13.373c0-7.521-5.805-13.114-13.017-13.26c-1.502-5.021-6.119-8.679-11.588-8.679
		c-1.802,0-3.504,0.408-5.041,1.119C44.475,3.508,38.4,0.299,31.58,0.299L31.58,0.299z"/>
</g>
<g>
	<path fill="#FFFFFF" d="M31.58,3.299c5.663,0,10.938,2.575,14.473,7.063l0.977,1.241l0.488,0.621l0.718-0.332l1.435-0.663
		c1.207-0.559,2.479-0.842,3.781-0.842c3.979,0,7.563,2.689,8.714,6.539l0.418,1.397l0.209,0.699l0.729,0.015l1.457,0.029
		c5.745,0.116,10.078,4.527,10.078,10.261c0,5.816-4.515,10.373-10.278,10.373H11.662c-4.888,0-8.716-3.691-8.716-8.404
		c0-4.272,3.132-7.654,7.617-8.225l1.604-0.205l0.802-0.102l0.068-0.806l0.136-1.611C13.983,10.788,22.068,3.299,31.58,3.299
		 M31.58,2.299c-10.027,0-18.55,7.891-19.404,17.964l-0.136,1.611l-1.604,0.205c-4.999,0.636-8.491,4.426-8.491,9.217
		c0,5.273,4.268,9.404,9.716,9.404h53.116c6.324,0,11.278-4.996,11.278-11.373c0-6.292-4.754-11.133-11.058-11.261l-1.457-0.029
		l-0.418-1.397c-1.277-4.27-5.255-7.252-9.672-7.252c-1.447,0-2.861,0.314-4.201,0.935l-1.435,0.663l-0.977-1.241
		C43.113,5.013,37.552,2.299,31.58,2.299L31.58,2.299z"/>
</g>
</svg>
