<?xml version="1.0" encoding="utf-8"?>
<!-- Generator: Adobe Illustrator 16.0.0, SVG Export Plug-In . SVG Version: 6.00 Build 0)  -->
<!DOCTYPE svg PUBLIC "-//W3C//DTD SVG 1.1//EN" "http://www.w3.org/Graphics/SVG/1.1/DTD/svg11.dtd">
<svg version="1.1" id="图层_1" xmlns="http://www.w3.org/2000/svg" xmlns:xlink="http://www.w3.org/1999/xlink" x="0px" y="0px"
	 width="24px" height="24px" viewBox="0 0 24 24" enable-background="new 0 0 24 24" xml:space="preserve">
<g>
	<g>
		<path fill-rule="evenodd" clip-rule="evenodd" fill="#40AF36" d="M1.5,19.469h19V16.5h-19V19.469z M16.5,17.469h3v1h-3V17.469z
			 M10.5,17.469h1v1h-1V17.469z M8.5,17.469h1v1h-1V17.469z M6.5,17.469h1v1h-1V17.469z M4.5,17.469h1v1h-1V17.469z M2.5,17.469h1v1
			h-1V17.469z M21.5,4.5v18.969l2-2V2.464L21.5,4.5z M11.5,7.469h9V4.5h-9V7.469z M17.5,5.469h2v1h-2V5.469z M12.5,5.469h1v1h-1
			V5.469z M11.5,15.469h9V12.5h-9V15.469z M17.5,13.469h2v1h-2V13.469z M12.5,13.469h1v1h-1V13.469z M22.494,1.469H3.53L1.5,3.5
			h18.969L22.494,1.469z M10.5,4.5h-9v2.969h9V4.5z M3.5,6.469h-1v-1h1V6.469z M9.5,6.469h-2v-1h2V6.469z M10.5,12.5h-9v2.969h9
			V12.5z M3.5,14.469h-1v-1h1V14.469z M9.5,14.469h-2v-1h2V14.469z M11.5,11.469h9V8.5h-9V11.469z M17.5,9.469h2v1h-2V9.469z
			 M12.5,9.469h1v1h-1V9.469z M10.5,8.5h-9v2.969h9V8.5z M3.5,10.469h-1v-1h1V10.469z M9.5,10.469h-2v-1h2V10.469z M1.5,23.469h19
			V20.5h-19V23.469z M16.5,21.469h3v1h-3V21.469z M10.5,21.469h1v1h-1V21.469z M8.5,21.469h1v1h-1V21.469z M6.5,21.469h1v1h-1
			V21.469z M4.5,21.469h1v1h-1V21.469z M2.5,21.469h1v1h-1V21.469z"/>
	</g>
</g>
</svg>
