<?xml version="1.0" encoding="utf-8"?>
<!-- Generator: Adobe Illustrator 16.0.0, SVG Export Plug-In . SVG Version: 6.00 Build 0)  -->
<!DOCTYPE svg PUBLIC "-//W3C//DTD SVG 1.1//EN" "http://www.w3.org/Graphics/SVG/1.1/DTD/svg11.dtd">
<svg version="1.1" id="图层_1" xmlns="http://www.w3.org/2000/svg" xmlns:xlink="http://www.w3.org/1999/xlink" x="0px" y="0px"
	 width="24px" height="24px" viewBox="0 0 24 24" enable-background="new 0 0 24 24" xml:space="preserve">
<g>
	<g>
		<path fill-rule="evenodd" clip-rule="evenodd" fill="#40AF36" d="M4.47,22.998h15.031l2.969-3.969H1.501L4.47,22.998z
			 M12.022,6.028c-0.317,0-0.609-0.1-0.851-0.269L6.677,8.983h10.648l-4.473-3.208C12.615,5.935,12.33,6.028,12.022,6.028z M1.498,1
			v16.987h21.005V1H1.498z M19.022,11.028c-0.373,0-0.702-0.147-0.962-0.374l-4.652,3.338c0.067,0.169,0.106,0.352,0.106,0.544
			c0,0.823-0.668,1.491-1.492,1.491c-0.823,0-1.491-0.668-1.491-1.491c0-0.183,0.038-0.356,0.098-0.519l-4.663-3.345
			c-0.257,0.217-0.581,0.355-0.944,0.355c-0.823,0-1.491-0.668-1.491-1.492s0.668-1.492,1.491-1.492c0.322,0,0.618,0.104,0.86,0.278
			l4.711-3.38c-0.037-0.13-0.063-0.265-0.063-0.406c0-0.824,0.668-1.492,1.491-1.492c0.824,0,1.492,0.668,1.492,1.492
			c0,0.151-0.029,0.294-0.071,0.432l4.7,3.372c0.247-0.183,0.548-0.295,0.879-0.295c0.824,0,1.492,0.668,1.492,1.492
			S19.847,11.028,19.022,11.028z M11.277,13.252c0.22-0.128,0.473-0.207,0.745-0.207c0.263,0,0.506,0.074,0.72,0.193l4.539-3.255
			H6.721L11.277,13.252z"/>
	</g>
</g>
</svg>
