<?xml version="1.0" encoding="utf-8"?>
<!-- Generator: Adobe Illustrator 16.0.0, SVG Export Plug-In . SVG Version: 6.00 Build 0)  -->
<!DOCTYPE svg PUBLIC "-//W3C//DTD SVG 1.1//EN" "http://www.w3.org/Graphics/SVG/1.1/DTD/svg11.dtd">
<svg version="1.1" id="图层_1" xmlns="http://www.w3.org/2000/svg" xmlns:xlink="http://www.w3.org/1999/xlink" x="0px" y="0px"
	 width="24px" height="24px" viewBox="0 0 24 24" enable-background="new 0 0 24 24" xml:space="preserve">
<g>
	<g>
		<path fill-rule="evenodd" clip-rule="evenodd" fill="#40AF36" d="M1.491,19.508l3.018,3.99h14.979l3.018-3.99H1.491z M22.5,1.492
			H1.498v17.006H22.5V1.492z M11.5,13.99v0.479h-0.572L10.5,14.827v0.517H9.883L9.5,15.664v0.555H8.837l-0.301,0.252l-0.003-0.252
			H8.5v-0.688h0.023L8.51,14.48H3.488v-0.994H8.51l0.014-1.018H8.5v-0.688h0.032l0.004-0.286l0.341,0.286H9.5v0.521l0.348,0.292
			H10.5v0.546l0.394,0.329H11.5v0.508l0.008,0.007L11.5,13.99z M11.5,7.99v0.479h-0.572L10.5,8.827v0.517H9.883L9.5,9.664v0.555
			H8.837l-0.301,0.252l-0.003-0.252H8.5V9.531h0.023L8.51,8.48H3.488V7.486H8.51l0.014-1.017H8.5V5.781h0.032l0.004-0.286
			l0.341,0.286H9.5v0.521l0.348,0.292H10.5v0.545l0.394,0.33H11.5v0.508l0.008,0.007L11.5,7.99z M20.512,12.48H15.49l-0.015,1.051
			H15.5v0.688h-0.033l-0.004,0.252l-0.301-0.252H14.5v-0.554l-0.384-0.321H13.5v-0.516l-0.429-0.359H12.5v-0.478l-0.009-0.007
			l0.009-0.007v-0.507h0.605l0.395-0.33v-0.545h0.651l0.349-0.292V9.781h0.622l0.341-0.286l0.004,0.286H15.5v0.688h-0.023
			l0.014,1.017h5.021V12.48z M20.512,6.48H15.49l-0.015,1.051H15.5v0.688h-0.033l-0.004,0.252l-0.301-0.252H14.5V7.665l-0.384-0.321
			H13.5V6.828l-0.429-0.359H12.5V5.991l-0.009-0.007L12.5,5.976V5.469h0.605l0.395-0.33V4.594h0.651L14.5,4.302V3.781h0.622
			l0.341-0.286l0.004,0.286H15.5v0.688h-0.023l0.014,1.017h5.021V6.48z"/>
	</g>
</g>
</svg>
