<?xml version="1.0" encoding="utf-8"?>
<!-- Generator: Adobe Illustrator 16.0.0, SVG Export Plug-In . SVG Version: 6.00 Build 0)  -->
<!DOCTYPE svg PUBLIC "-//W3C//DTD SVG 1.1//EN" "http://www.w3.org/Graphics/SVG/1.1/DTD/svg11.dtd">
<svg version="1.1" id="图层_1" xmlns="http://www.w3.org/2000/svg" xmlns:xlink="http://www.w3.org/1999/xlink" x="0px" y="0px"
	 width="24px" height="24px" viewBox="0 0 24 24" enable-background="new 0 0 24 24" xml:space="preserve">
<path fill-rule="evenodd" clip-rule="evenodd" fill="#40AF36" d="M1.498,1.492H22.5v17.006H1.498V1.492z M16.51,16.459l2.99-1.845
	V5.333l-2.99-1.844V16.459z M8.468,14.465h5.037v0.004H13.5v1h1l0.01-1h0.99V13.5h-1.011l0.011-1h-0.994h-0.001l0,0H13.5v1h0.005
	v0.004H8.468V14.465z M8.468,10.465h5.037v0.003H13.5v1h1l0.01-1h0.99V9.5l-1-0.001V8.5h-0.994h-0.001l0,0H13.5v1h0.005v0.003H8.468
	V10.465z M8.468,6.465h5.037v0.003H13.5v1h1l0.041-1H15.5V5.5l-1-0.001V4.5h-0.994h-0.001l0,0H13.5v1h0.005v0.003H8.468V6.465z
	 M4.5,14.614l2.989,1.845V3.489L4.5,5.333V14.614z M19.488,23.498H4.509l-3.018-3.99h21.015L19.488,23.498z"/>
</svg>
