<?xml version="1.0" encoding="utf-8"?>
<!-- Generator: Adobe Illustrator 16.0.0, SVG Export Plug-In . SVG Version: 6.00 Build 0)  -->
<!DOCTYPE svg PUBLIC "-//W3C//DTD SVG 1.1//EN" "http://www.w3.org/Graphics/SVG/1.1/DTD/svg11.dtd">
<svg version="1.1" id="图层_1" xmlns="http://www.w3.org/2000/svg" xmlns:xlink="http://www.w3.org/1999/xlink" x="0px" y="0px"
	 width="24px" height="24px" viewBox="0 0 24 24" enable-background="new 0 0 24 24" xml:space="preserve">
<g>
	<g>
		<path fill-rule="evenodd" clip-rule="evenodd" fill="#31BD16" d="M19.02,14.502c-0.31,0-0.605,0.047-0.894,0.113l-3.581-6.902
			c0.532-0.657,0.865-1.483,0.865-2.395c0-2.109-1.709-3.819-3.819-3.819c-2.109,0-3.82,1.71-3.82,3.819
			c0,1.181,0.547,2.223,1.388,2.923l-3.296,6.352c-0.288-0.065-0.583-0.107-0.891-0.107c-2.205,0-3.992,1.787-3.992,3.992
			c0,2.204,1.787,3.991,3.992,3.991c1.876,0,3.439-1.299,3.866-3.043h6.299c0.419,1.761,1.993,3.074,3.882,3.074
			c2.209,0,4-1.79,4-3.999S21.229,14.502,19.02,14.502z M11.626,3.499c1.053,0,1.905,0.854,1.905,1.905
			c0,1.053-0.853,1.906-1.905,1.906c-1.052,0-1.905-0.854-1.905-1.906C9.721,4.353,10.574,3.499,11.626,3.499z M4.993,20.514
			c-1.109,0-2.007-0.898-2.007-2.007c0-1.109,0.898-2.008,2.007-2.008C6.101,16.499,7,17.397,7,18.507
			C7,19.615,6.101,20.514,4.993,20.514z M15.158,17.513H8.843c-0.224-0.883-0.745-1.646-1.447-2.187l3.275-6.312
			c0.296,0.074,0.602,0.125,0.92,0.125c0.571,0,1.107-0.134,1.594-0.358l3.403,6.558C15.895,15.876,15.382,16.636,15.158,17.513z
			 M18.992,20.514c-1.108,0-2.007-0.898-2.007-2.007c0-1.109,0.898-2.008,2.007-2.008c1.109,0,2.008,0.898,2.008,2.008
			C21,19.615,20.102,20.514,18.992,20.514z"/>
	</g>
</g>
</svg>
