<?xml version="1.0" encoding="utf-8"?>
<!-- Generator: Adobe Illustrator 16.0.0, SVG Export Plug-In . SVG Version: 6.00 Build 0)  -->
<!DOCTYPE svg PUBLIC "-//W3C//DTD SVG 1.1//EN" "http://www.w3.org/Graphics/SVG/1.1/DTD/svg11.dtd">
<svg version="1.1" id="图层_1" xmlns="http://www.w3.org/2000/svg" xmlns:xlink="http://www.w3.org/1999/xlink" x="0px" y="0px"
	 width="24px" height="24px" viewBox="0 0 24 24" enable-background="new 0 0 24 24" xml:space="preserve">
<g>
	<g>
		<path fill-rule="evenodd" clip-rule="evenodd" fill="#40AF36" d="M20.5,11.5h-2v1h2V11.5z M1.491,19.508l3.018,3.99h14.98
			l3.017-3.99H1.491z M22.5,1.492L1.5,1.5v17h21V1.492z M14.5,5.5h1v-1h1v1h2v1h-2v2h2v1h-3v-3h-1V5.5z M2.5,2.5h5v1h-4v2h4v1h-4v2
			h4v1h-5V2.5z M5.5,11.5h-1v1h-1v3h-1v-5h1v1h1v-1h1V11.5z M10.5,13.5h-3v1h3v1h-4v-5h4V13.5z M10.5,8.5h-1v1h-1v-1h1v-1h1v-1h-1
			v-1h-1v-1h1v1h1v1h1v-1h1v-1h1v1h-1v1h-1v1h1v1h1v1h-1v-1h-1v-1h-1V8.5z M16.5,15.5h-1v-4h-1v4h-1v-4h-1v4h-1v-5h5V15.5z
			 M21.5,13.5h-3v1h3v1h-4v-5h4V13.5z M9.5,11.5h-2v1h2V11.5z"/>
	</g>
</g>
</svg>
