<?xml version="1.0" encoding="utf-8"?>
<!-- Generator: Adobe Illustrator 17.0.0, SVG Export Plug-In . SVG Version: 6.00 Build 0)  -->
<!DOCTYPE svg PUBLIC "-//W3C//DTD SVG 1.1//EN" "http://www.w3.org/Graphics/SVG/1.1/DTD/svg11.dtd">
<svg version="1.1" id="图层_1" xmlns="http://www.w3.org/2000/svg" xmlns:xlink="http://www.w3.org/1999/xlink" x="0px" y="0px"
	 width="24px" height="24px" viewBox="0 0 24 24" enable-background="new 0 0 24 24" xml:space="preserve">
<polygon fill="#40AF36" points="19.489,23.498 4.509,23.498 1.491,19.508 22.5,19.508 "/>
<g>
	<path fill="#40AF36" d="M9.781,12.547c-0.308,0-0.563,0.115-0.766,0.346s-0.304,0.578-0.304,1.043s0.102,0.813,0.304,1.044
		s0.458,0.347,0.766,0.347c0.305,0,0.56-0.116,0.762-0.349c0.203-0.232,0.305-0.587,0.305-1.063c0-0.448-0.102-0.789-0.306-1.02
		C10.338,12.663,10.084,12.547,9.781,12.547z"/>
	<path fill="#40AF36" d="M15.508,5.752c-0.283,0-0.521,0.095-0.713,0.284s-0.299,0.442-0.32,0.759h2.027
		c-0.027-0.305-0.104-0.534-0.232-0.687C16.073,5.871,15.819,5.752,15.508,5.752z"/>
	<path fill="#40AF36" d="M19.529,12.544c-0.283,0-0.521,0.095-0.713,0.284c-0.192,0.188-0.299,0.441-0.32,0.758h2.027
		c-0.027-0.305-0.104-0.533-0.232-0.687C20.095,12.662,19.841,12.544,19.529,12.544z"/>
	<path fill="#40AF36" d="M11.669,5.752c-0.27,0-0.502,0.117-0.698,0.351c-0.196,0.233-0.294,0.571-0.294,1.013
		c0,0.435,0.059,0.75,0.178,0.943c0.194,0.317,0.456,0.475,0.786,0.475c0.27,0,0.502-0.117,0.698-0.351
		c0.195-0.233,0.293-0.582,0.293-1.044c0-0.474-0.094-0.824-0.281-1.049C12.162,5.865,11.935,5.752,11.669,5.752z"/>
	<path fill="#40AF36" d="M1.5,1.5v17h21v-17H1.5z M17.896,5.329h0.553v0.55c0.142-0.257,0.272-0.427,0.392-0.509
		c0.12-0.082,0.251-0.123,0.396-0.123c0.207,0,0.418,0.066,0.632,0.198l-0.212,0.571c-0.15-0.089-0.301-0.133-0.451-0.133
		c-0.135,0-0.255,0.041-0.362,0.121c-0.107,0.081-0.184,0.193-0.229,0.337c-0.068,0.219-0.102,0.458-0.102,0.718v1.9h-0.615V5.329z
		 M8.565,3.948H9.18v0.708H8.565V3.948z M8.565,5.329H9.18v3.63H8.565V5.329z M7.283,15.75H6.62v-2.361H4.015v2.361H3.352v-5.011
		h0.663v2.058H6.62v-2.058h0.663V15.75z M7.779,4.539H5.062v1.552h2.352v0.591H5.062v2.276H4.398V3.948h3.38V4.539z M11.27,14.986
		c-0.14,0.268-0.344,0.476-0.611,0.623c-0.268,0.148-0.561,0.223-0.877,0.223c-0.508,0-0.919-0.163-1.232-0.488
		c-0.313-0.326-0.47-0.796-0.47-1.408c0-0.673,0.187-1.17,0.561-1.494c0.312-0.269,0.693-0.403,1.142-0.403
		c0.499,0,0.906,0.164,1.224,0.49c0.316,0.327,0.475,0.778,0.475,1.355C11.479,14.352,11.41,14.719,11.27,14.986z M10.684,8.504
		v0.455h-0.571V3.948h0.615v1.788c0.26-0.326,0.591-0.489,0.995-0.489c0.223,0,0.435,0.045,0.634,0.135
		c0.199,0.09,0.363,0.217,0.492,0.38c0.129,0.163,0.229,0.359,0.302,0.589c0.073,0.23,0.109,0.476,0.109,0.738
		c0,0.622-0.153,1.103-0.461,1.442s-0.677,0.509-1.107,0.509C11.264,9.041,10.928,8.862,10.684,8.504z M17.12,15.75h-0.612v-2.287
		c0-0.246-0.02-0.423-0.06-0.531c-0.04-0.107-0.112-0.195-0.217-0.262c-0.104-0.065-0.228-0.099-0.369-0.099
		c-0.255,0-0.467,0.085-0.636,0.255s-0.253,0.441-0.253,0.814v2.109h-0.615v-2.358c0-0.273-0.05-0.479-0.15-0.615
		s-0.265-0.205-0.492-0.205c-0.173,0-0.333,0.046-0.48,0.137c-0.146,0.091-0.253,0.225-0.319,0.399c-0.066,0.176-0.1,0.429-0.1,0.76
		v1.883h-0.615v-3.63h0.551v0.509c0.114-0.177,0.266-0.32,0.455-0.429c0.188-0.108,0.404-0.162,0.646-0.162
		c0.269,0,0.489,0.056,0.661,0.167s0.294,0.268,0.364,0.468c0.287-0.424,0.661-0.636,1.121-0.636c0.36,0,0.637,0.1,0.831,0.299
		c0.193,0.2,0.29,0.507,0.29,0.921V15.75z M17.148,7.301h-2.707c0.022,0.399,0.135,0.704,0.338,0.916s0.456,0.318,0.759,0.318
		c0.226,0,0.418-0.059,0.577-0.178c0.16-0.119,0.286-0.308,0.38-0.567l0.636,0.079c-0.101,0.372-0.286,0.66-0.557,0.865
		c-0.271,0.205-0.618,0.308-1.039,0.308c-0.531,0-0.952-0.164-1.264-0.49c-0.311-0.327-0.467-0.786-0.467-1.376
		c0-0.611,0.158-1.084,0.473-1.422s0.722-0.506,1.223-0.506c0.486,0,0.883,0.165,1.189,0.496c0.309,0.331,0.462,0.795,0.462,1.395
		C17.151,7.173,17.15,7.228,17.148,7.301z M21.17,14.092h-2.707c0.022,0.399,0.135,0.705,0.338,0.916
		c0.203,0.213,0.456,0.318,0.759,0.318c0.226,0,0.418-0.06,0.577-0.178c0.16-0.118,0.286-0.308,0.38-0.567l0.636,0.079
		c-0.101,0.371-0.286,0.659-0.557,0.864c-0.271,0.205-0.618,0.308-1.039,0.308c-0.531,0-0.952-0.163-1.264-0.49
		c-0.311-0.327-0.467-0.785-0.467-1.376c0-0.61,0.158-1.085,0.473-1.422c0.314-0.337,0.722-0.506,1.223-0.506
		c0.486,0,0.883,0.165,1.189,0.495c0.309,0.331,0.462,0.796,0.462,1.395C21.173,13.965,21.172,14.02,21.17,14.092z"/>
</g>
</svg>
