<?xml version="1.0" encoding="utf-8"?>
<!-- Generator: Adobe Illustrator 16.0.0, SVG Export Plug-In . SVG Version: 6.00 Build 0)  -->
<!DOCTYPE svg PUBLIC "-//W3C//DTD SVG 1.1//EN" "http://www.w3.org/Graphics/SVG/1.1/DTD/svg11.dtd">
<svg version="1.1" id="图层_1" xmlns="http://www.w3.org/2000/svg" xmlns:xlink="http://www.w3.org/1999/xlink" x="0px" y="0px"
	 width="24px" height="24px" viewBox="0 0 24 24" enable-background="new 0 0 24 24" xml:space="preserve">
<g>
	<g>
		<path fill-rule="evenodd" clip-rule="evenodd" fill="#40AF36" d="M6.487,4.483H1.514v2.954h4.973V4.483z M7.514,7.438h4.973V4.483
			H7.514V7.438z M13.514,7.438h4.973V4.483h-4.973V7.438z M4.514,11.438h4.973V8.483H4.514V11.438z M15.486,8.483h-4.972v2.954
			h4.972V8.483z M16.514,11.438h1.973V8.483h-1.973V11.438z M3.487,8.483H1.514v2.954h1.973V8.483z M6.487,12.483H1.514v2.954h4.973
			V12.483z M7.514,15.438h4.973v-2.954H7.514V15.438z M13.514,15.438h4.973v-2.954h-4.973V15.438z M4.514,19.438h4.973v-2.954H4.514
			V19.438z M10.514,19.438h4.972v-2.954h-4.972V19.438z M16.514,19.438h1.973v-2.954h-1.973V19.438z M3.487,16.483H1.514v2.954
			h1.973V16.483z M1.514,23.438h4.973v-2.954H1.514V23.438z M7.514,23.438h4.973v-2.954H7.514V23.438z M13.514,23.438h4.973v-2.954
			h-4.973V23.438z M4.514,0.484l-3,2.954h16.972l3-2.954H4.514z M19.514,4.483v18.954l2.974-3V1.483L19.514,4.483z"/>
	</g>
</g>
</svg>
