<?xml version="1.0" encoding="utf-8"?>
<!-- Generator: Adobe Illustrator 16.0.0, SVG Export Plug-In . SVG Version: 6.00 Build 0)  -->
<!DOCTYPE svg PUBLIC "-//W3C//DTD SVG 1.1//EN" "http://www.w3.org/Graphics/SVG/1.1/DTD/svg11.dtd">
<svg version="1.1" id="图层_1" xmlns="http://www.w3.org/2000/svg" xmlns:xlink="http://www.w3.org/1999/xlink" x="0px" y="0px"
	 width="24px" height="24px" viewBox="0 0 24 24" enable-background="new 0 0 24 24" xml:space="preserve">
<g>
	<g>
		<path fill-rule="evenodd" clip-rule="evenodd" fill="#40AF36" d="M22.5,1.492H1.498v17.006H22.5V1.492z M8.5,13.5h-1v-3h-3v3h-1
			v-7h1v3h3v-3h1V13.5z M14.5,9.5h-1v1h1v2h-1v1h-3v-1h-1v-1h1v1h3v-2h-2v-1h2v-2h-3v1h-1v-1h1v-1h3v1h1V9.5z M20.5,8.5h-1v-1h-3v5
			h3v-1h1v1h-1v1h-3v-1h-1v-5h1v-1h3v1h1V8.5z M1.491,19.508l3.018,3.99h14.979l3.018-3.99H1.491z"/>
	</g>
</g>
</svg>
