<?xml version="1.0" encoding="utf-8"?>
<!-- Generator: Adobe Illustrator 16.0.0, SVG Export Plug-In . SVG Version: 6.00 Build 0)  -->
<!DOCTYPE svg PUBLIC "-//W3C//DTD SVG 1.1//EN" "http://www.w3.org/Graphics/SVG/1.1/DTD/svg11.dtd">
<svg version="1.1" id="图层_1" xmlns="http://www.w3.org/2000/svg" xmlns:xlink="http://www.w3.org/1999/xlink" x="0px" y="0px"
	 width="24px" height="24px" viewBox="0 0 24 24" enable-background="new 0 0 24 24" xml:space="preserve">
<g>
	<g>
		<path fill-rule="evenodd" clip-rule="evenodd" fill="#40AF36" d="M17.5,2h1V1h1V0h-12l-3,3h13V2z M17.5,4v20l3-3V1L17.5,4z
			 M4.5,17h12V4h-12V17z M6.5,7h8v2h-8V7z M6.5,11h8v1h-8V11z M4.5,24h12v-6h-12V24z M10.495,20.02
			c0.554,0.02,1.005,0.476,1.005,1.019c0,0.542-0.451,0.962-1.005,0.937C9.944,21.95,9.5,21.494,9.5,20.957S9.944,20,10.495,20.02z"
			/>
	</g>
</g>
</svg>
