<?xml version="1.0" encoding="utf-8"?>
<!-- Generator: Adobe Illustrator 16.0.0, SVG Export Plug-In . SVG Version: 6.00 Build 0)  -->
<!DOCTYPE svg PUBLIC "-//W3C//DTD SVG 1.1//EN" "http://www.w3.org/Graphics/SVG/1.1/DTD/svg11.dtd">
<svg version="1.1" id="图层_1" xmlns="http://www.w3.org/2000/svg" xmlns:xlink="http://www.w3.org/1999/xlink" x="0px" y="0px"
	 width="24px" height="24px" viewBox="0 0 24 24" enable-background="new 0 0 24 24" xml:space="preserve">
<g>
	<g>
		<path fill-rule="evenodd" clip-rule="evenodd" fill="#31BD16" d="M1.491,19.508l3.018,3.99h14.979l3.018-3.99H1.491z M22.5,1.492
			H1.498v17.006H22.5V1.492z M9.5,13.5h-1v-3h-3v3h-1v-7h1v3h3v-3h1V13.5z M19.5,8.5h-1v4h-1v1h-1v-1h-1v-5h-1v5h-1v1h-1v-1h-1v-4
			h-1v-2h1v2h1v4h1v-5h1v-1h1v1h1v5h1v-4h1v-2h1V8.5z"/>
	</g>
</g>
</svg>
