<?xml version="1.0" encoding="utf-8"?>
<!-- Generator: Adobe Illustrator 16.0.0, SVG Export Plug-In . SVG Version: 6.00 Build 0)  -->
<!DOCTYPE svg PUBLIC "-//W3C//DTD SVG 1.1//EN" "http://www.w3.org/Graphics/SVG/1.1/DTD/svg11.dtd">
<svg version="1.1" id="图层_1" xmlns="http://www.w3.org/2000/svg" xmlns:xlink="http://www.w3.org/1999/xlink" x="0px" y="0px"
	 width="24px" height="24px" viewBox="0 0 24 24" enable-background="new 0 0 24 24" xml:space="preserve">
<g>
	<g>
		<path fill-rule="evenodd" clip-rule="evenodd" fill="#40AF36" d="M7.5,12.5h4v-2h-4V12.5z M22.5,1.492L1.5,1.5v17h21V1.492z
			 M5.5,13.5h-1v-7h1V13.5z M12.5,9.5h-1v1h1v2h-1v1h-5v-7h5v1h1V9.5z M20.5,13.5h-1v-6h-2v6h-1v-6h-2v6h-1v-7h7V13.5z
			 M1.491,19.508l3.018,3.99h14.98l3.017-3.99H1.491z M7.5,7.5v2h4v-2H7.5z"/>
	</g>
</g>
</svg>
