<?xml version="1.0" encoding="utf-8"?>
<!-- Generator: Adobe Illustrator 16.0.0, SVG Export Plug-In . SVG Version: 6.00 Build 0)  -->
<!DOCTYPE svg PUBLIC "-//W3C//DTD SVG 1.1//EN" "http://www.w3.org/Graphics/SVG/1.1/DTD/svg11.dtd">
<svg version="1.1" id="图层_1" xmlns="http://www.w3.org/2000/svg" xmlns:xlink="http://www.w3.org/1999/xlink" x="0px" y="0px"
	 width="24px" height="24px" viewBox="0 0 24 24" enable-background="new 0 0 24 24" xml:space="preserve">
<g>
	<g>
		<path fill-rule="evenodd" clip-rule="evenodd" fill="#31BD16" d="M22,6.997V1.003H1.003v5.994H1v5.006h0.004v5.994h12.088
			c0.098-0.568,0.273-1.107,0.518-1.609c-0.928-1.064-1.661-2.303-2.104-3.676c-0.514,1.614-1.41,3.055-2.579,4.225L8.221,16.23
			c1.718-1.721,2.78-4.095,2.78-6.718c0-2.635-1.073-5.019-2.805-6.741l0.703-0.696c1.182,1.175,2.088,2.626,2.605,4.253
			c0.523-1.62,1.43-3.068,2.61-4.241l0.691,0.684c-1.732,1.722-2.805,4.106-2.805,6.741c0,2.273,0.8,4.359,2.131,5.996
			c0.396-0.551,0.879-1.031,1.436-1.42c-0.979-1.267-1.566-2.851-1.566-4.576c0-2.087,0.852-3.974,2.227-5.334l0.715,0.708
			c-1.197,1.182-1.941,2.824-1.941,4.64c0,1.539,0.535,2.95,1.426,4.064c0.781-0.371,1.652-0.586,2.574-0.586
			c1.094,0,2.115,0.297,2.998,0.809v-1.81h0.002V6.997H22z M2.001,10.924V8.102C2.38,8.24,2.691,8.518,2.859,8.881
			c0.003,0.006,0.006,0.011,0.009,0.017C2.904,8.979,2.931,9.063,2.953,9.15c0.004,0.016,0.011,0.03,0.015,0.046
			c0.021,0.102,0.034,0.207,0.034,0.315C3.001,10.166,2.583,10.716,2.001,10.924z M4.686,12.702l-0.708-0.706
			c0.632-0.635,1.023-1.51,1.023-2.478c0-0.991-0.414-1.882-1.074-2.521l0.711-0.704c0.839,0.819,1.363,1.96,1.363,3.225
			C6.001,10.761,5.499,11.885,4.686,12.702z M9.001,9.512c0,2.072-0.839,3.947-2.196,5.304l-0.698-0.697
			c1.17-1.178,1.895-2.801,1.895-4.593c0-1.816-0.744-3.458-1.941-4.64l0.715-0.708C8.149,5.539,9.001,7.425,9.001,9.512z
			 M19.025,11.996l-0.709,0.706c-0.813-0.816-1.314-1.941-1.314-3.184c0-1.265,0.523-2.405,1.361-3.225l0.711,0.704
			c-0.658,0.639-1.072,1.53-1.072,2.521C18.002,10.485,18.393,11.36,19.025,11.996z M21,10.924
			c-0.211-0.076-0.402-0.191-0.557-0.346c0,0,0,0,0-0.001c-0.01-0.01-0.018-0.022-0.027-0.033c-0.189-0.2-0.326-0.449-0.385-0.729
			c-0.02-0.098-0.029-0.2-0.029-0.304c0-0.108,0.012-0.214,0.033-0.315c0.004-0.016,0.012-0.031,0.016-0.047
			c0.021-0.087,0.047-0.171,0.084-0.251c0.002-0.007,0.006-0.012,0.01-0.019C20.313,8.518,20.623,8.241,21,8.104V10.924z
			 M0.993,19.012l3.018,3.99h10.527c-0.951-1.061-1.533-2.455-1.535-3.99H0.993z"/>
	</g>
</g>
<g>
	<g>
		<path fill-rule="evenodd" clip-rule="evenodd" fill="#FC5043" d="M19,14c-2.762,0-5,2.238-5,5s2.238,5,5,5s5-2.238,5-5
			S21.762,14,19,14z M21.121,21.121c-0.391,0.391-1.023,0.391-1.414,0l-2.828-2.828c-0.391-0.391-0.391-1.023,0-1.414
			s1.023-0.391,1.414,0l2.828,2.828C21.512,20.098,21.512,20.73,21.121,21.121z"/>
	</g>
</g>
</svg>
