<?xml version="1.0" encoding="utf-8"?>
<!-- Generator: Adobe Illustrator 16.0.0, SVG Export Plug-In . SVG Version: 6.00 Build 0)  -->
<!DOCTYPE svg PUBLIC "-//W3C//DTD SVG 1.1//EN" "http://www.w3.org/Graphics/SVG/1.1/DTD/svg11.dtd">
<svg version="1.1" id="图层_1" xmlns="http://www.w3.org/2000/svg" xmlns:xlink="http://www.w3.org/1999/xlink" x="0px" y="0px"
	 width="24px" height="24px" viewBox="0 0 24 24" enable-background="new 0 0 24 24" xml:space="preserve">
<g>
	<g>
		<path fill-rule="evenodd" clip-rule="evenodd" fill="#40AF36" d="M16.475,6.532c0.298,0,0.539-0.242,0.539-0.539
			c0-0.298-0.241-0.54-0.539-0.54s-0.539,0.241-0.539,0.54C15.936,6.291,16.177,6.532,16.475,6.532z M20.781,3.502H9.503V2.606
			c0-0.633-0.513-1.146-1.146-1.146H5.626c-0.633,0-1.146,0.513-1.146,1.146v0.896H3.219c-0.95,0-1.719,0.77-1.719,1.719v14.526
			c0,0.95,0.77,1.72,1.719,1.72H4.48v0.886c0,0.633,0.513,1.146,1.146,1.146h2.731c0.633,0,1.146-0.514,1.146-1.146v-0.886h11.278
			c0.95,0,1.72-0.77,1.72-1.72V5.222C22.501,4.272,21.731,3.502,20.781,3.502z M4.478,21.465H3.498V3.528h0.979V21.465z
			 M16.508,4.508c0.842,0,1.525,0.683,1.525,1.525c0,0.842-0.684,1.524-1.525,1.524s-1.524-0.683-1.524-1.524
			C14.983,5.191,15.666,4.508,16.508,4.508z M10.48,21.465H9.501V3.511h0.979V21.465z M14.459,19.474h-1.956v-0.999h1.956V19.474z
			 M14.459,17.474h-1.956v-0.999h1.956V17.474z M14.459,15.474h-1.956v-0.999h1.956V15.474z M14.459,13.474h-1.956v-0.999h1.956
			V13.474z M17.459,19.474h-1.955v-0.999h1.955V19.474z M17.459,17.474h-1.955v-0.999h1.955V17.474z M17.459,15.474h-1.955v-0.999
			h1.955V15.474z M17.459,13.474h-1.955v-0.999h1.955V13.474z M20.459,19.474h-1.955v-0.999h1.955V19.474z M20.459,17.474h-1.955
			v-0.999h1.955V17.474z M20.459,15.474h-1.955v-0.999h1.955V15.474z M20.459,13.474h-1.955v-0.999h1.955V13.474z M20.515,10.334
			c0,0.633-0.513,1.146-1.146,1.146h-5.721c-0.633,0-1.146-0.513-1.146-1.146V9.652c0-0.633,0.514-1.146,1.146-1.146h5.721
			c0.633,0,1.146,0.514,1.146,1.146V10.334z"/>
	</g>
</g>
</svg>
