<?xml version="1.0" encoding="utf-8"?>
<!-- Generator: Adobe Illustrator 16.0.0, SVG Export Plug-In . SVG Version: 6.00 Build 0)  -->
<!DOCTYPE svg PUBLIC "-//W3C//DTD SVG 1.1//EN" "http://www.w3.org/Graphics/SVG/1.1/DTD/svg11.dtd">
<svg version="1.1" id="图层_1" xmlns="http://www.w3.org/2000/svg" xmlns:xlink="http://www.w3.org/1999/xlink" x="0px" y="0px"
	 width="24px" height="24px" viewBox="0 0 24 24" enable-background="new 0 0 24 24" xml:space="preserve">
<g>
	<g>
		<path fill-rule="evenodd" clip-rule="evenodd" fill="#40AF36" d="M14.5,4.5h-5v1h5V4.5z M22.5,1.5h-21v17h21V1.5z M20.5,16.5h-3
			v-3h1v-2h-6v2h1v3h-3v-3h1v-2h-6v2h1v3h-3v-3h1v-3h7v-2h-2c-0.552,0-1-0.447-1-1v-3c0-0.553,0.448-1,1-1h5c0.553,0,1,0.447,1,1v3
			c0,0.553-0.447,1-1,1h-2v2h7v3h1V16.5z M1.491,19.508l3.018,3.99h14.979l3.018-3.99H1.491z M14.5,6.5h-5v1h5V6.5z"/>
	</g>
</g>
</svg>
