<?xml version="1.0" encoding="utf-8"?>
<!-- Generator: Adobe Illustrator 16.0.0, SVG Export Plug-In . SVG Version: 6.00 Build 0)  -->
<!DOCTYPE svg PUBLIC "-//W3C//DTD SVG 1.1//EN" "http://www.w3.org/Graphics/SVG/1.1/DTD/svg11.dtd">
<svg version="1.1" id="图层_1" xmlns="http://www.w3.org/2000/svg" xmlns:xlink="http://www.w3.org/1999/xlink" x="0px" y="0px"
	 width="24px" height="24px" viewBox="0 0 24 24" enable-background="new 0 0 24 24" xml:space="preserve">
<g>
	<g>
		<path fill-rule="evenodd" clip-rule="evenodd" fill="#40AF36" d="M9.5,11.5h-3v1h3V11.5z M1.491,19.508l3.018,3.99h14.98
			l3.017-3.99H1.491z M14.5,6.5v-2h-1v2H14.5z M22.5,1.492L1.5,1.5v17h21V1.492z M10.5,13.5h-4v3h-1v-6h5V13.5z M10.5,9.5h-1v-5h-1
			v5h-1v-5h-1v5h-1v-6h5V9.5z M16.5,16.5h-5v-5h1v4h3v-4h1V16.5z M16.5,9.5h-1v-2h-3v2h-1v-3h1v-2h1v-1h1v1h1v2h1V9.5z M18.5,9.5h-1
			v-6h1V9.5z"/>
	</g>
</g>
</svg>
