<?xml version="1.0" encoding="utf-8"?>
<!-- Generator: Adobe Illustrator 16.0.0, SVG Export Plug-In . SVG Version: 6.00 Build 0)  -->
<!DOCTYPE svg PUBLIC "-//W3C//DTD SVG 1.1//EN" "http://www.w3.org/Graphics/SVG/1.1/DTD/svg11.dtd">
<svg version="1.1" id="图层_1" xmlns="http://www.w3.org/2000/svg" xmlns:xlink="http://www.w3.org/1999/xlink" x="0px" y="0px"
	 width="24px" height="24px" viewBox="0 0 24 24" enable-background="new 0 0 24 24" xml:space="preserve">
<g>
	<g>
		<path fill-rule="evenodd" clip-rule="evenodd" fill="#40AF36" d="M10.5,8.5h2v-1h-2V8.5z M4.5,12.5v3h3v-3H4.5z M22.5,1.492
			L1.5,1.5v17h21V1.492z M9.5,6.5h3v-1h-2v-1h3v5h-4V6.5z M8.5,15.5h-1v1h-3v-1h-1v-3h1v-1h3v1h1V15.5z M8.5,9.5h-1v-4h-1v4h-1v-4
			h-1v4h-1v-5h5V9.5z M14.5,16.5h-1v-4h-3v4h-1v-4h1v-1h3v1h1V16.5z M16.5,16.5h-1v-4h1V16.5z M16.5,11.5h-1v-1h1V11.5z M17.5,5.5
			h-1v1h-1v3h-1v-5h1v1h1v-1h1V5.5z M21.5,5.5h-2v3h2v1h-3v-5h3V5.5z M1.491,19.508l3.018,3.99h14.98l3.017-3.99H1.491z"/>
	</g>
</g>
</svg>
