<?xml version="1.0" encoding="utf-8"?>
<!-- Generator: Adobe Illustrator 16.0.0, SVG Export Plug-In . SVG Version: 6.00 Build 0)  -->
<!DOCTYPE svg PUBLIC "-//W3C//DTD SVG 1.1//EN" "http://www.w3.org/Graphics/SVG/1.1/DTD/svg11.dtd">
<svg version="1.1" id="图层_1" xmlns="http://www.w3.org/2000/svg" xmlns:xlink="http://www.w3.org/1999/xlink" x="0px" y="0px"
	 width="24px" height="24px" viewBox="0 0 24 24" enable-background="new 0 0 24 24" xml:space="preserve">
<g>
	<g>
		<path fill-rule="evenodd" clip-rule="evenodd" fill="#40AF36" d="M10.084,10.501c0-0.878,0.601-1.61,1.412-1.825V5.932
			c-0.054-0.019-0.098-0.054-0.149-0.078L6.59,12.896l3.555-1.943C10.108,10.808,10.084,10.658,10.084,10.501z M12.496,5.922v2.766
			c0.793,0.226,1.377,0.948,1.377,1.814c0,0.154-0.023,0.302-0.058,0.445l3.568,1.952l-4.76-7.045
			C12.58,5.874,12.542,5.905,12.496,5.922z M1.492,19.014l3.019,3.99H19.49l3.018-3.99H1.492z M22.502,0.998H1.5v17.006h21.002
			V0.998z M18.98,16.018c-0.666,0-1.226-0.431-1.431-1.027H6.411c-0.205,0.597-0.764,1.027-1.43,1.027
			c-0.839,0-1.519-0.68-1.519-1.519s0.68-1.519,1.519-1.519c0.051,0,0.095,0.019,0.145,0.024l5.461-7.938
			c-0.073-0.177-0.124-0.364-0.124-0.567c0-0.839,0.68-1.519,1.519-1.519s1.519,0.68,1.519,1.519c0,0.199-0.049,0.384-0.119,0.558
			l5.461,7.938c0.047-0.004,0.092-0.014,0.14-0.014c0.839,0,1.519,0.68,1.519,1.519S19.819,16.018,18.98,16.018z M11.979,12.396
			c-0.498,0-0.947-0.196-1.285-0.51L6.676,13.99h10.62l-4.026-2.109C12.931,12.198,12.479,12.396,11.979,12.396z"/>
	</g>
</g>
</svg>
