<?xml version="1.0" encoding="utf-8"?>
<!-- Generator: Adobe Illustrator 16.0.0, SVG Export Plug-In . SVG Version: 6.00 Build 0)  -->
<!DOCTYPE svg PUBLIC "-//W3C//DTD SVG 1.1//EN" "http://www.w3.org/Graphics/SVG/1.1/DTD/svg11.dtd">
<svg version="1.1" id="图层_1" xmlns="http://www.w3.org/2000/svg" xmlns:xlink="http://www.w3.org/1999/xlink" x="0px" y="0px"
	 width="24px" height="24px" viewBox="0 0 24 24" enable-background="new 0 0 24 24" xml:space="preserve">
<g>
	<g>
		<path fill-rule="evenodd" clip-rule="evenodd" fill="#40AF36" d="M1.491,19.508l3.018,3.99h14.98l3.017-3.99H1.491z M22.5,1.5h-21
			v17h21V1.5z M12.5,12.5h-3v5h-1v-5h-3v-1h7V12.5z M12.5,9.5h-1v-5h-2v5h-1v-5h-2v5h-1v-6h7V9.5z M18.5,16.5h-1v1h-3v-1h-1v-4h1v-1
			h3v1h1V16.5z M18.5,8.5h-1v1h-3v-1h-1v-4h1v-1h3v1h1V8.5z M14.5,12.5v4h3v-4H14.5z M14.5,4.5v4h3v-4H14.5z"/>
	</g>
</g>
</svg>
