<?xml version="1.0" encoding="utf-8"?>
<!-- Generator: Adobe Illustrator 17.0.0, SVG Export Plug-In . SVG Version: 6.00 Build 0)  -->
<!DOCTYPE svg PUBLIC "-//W3C//DTD SVG 1.1//EN" "http://www.w3.org/Graphics/SVG/1.1/DTD/svg11.dtd">
<svg version="1.1" xmlns="http://www.w3.org/2000/svg" xmlns:xlink="http://www.w3.org/1999/xlink" x="0px" y="0px" width="24px"
	 height="24px" viewBox="0 0 24 24" enable-background="new 0 0 24 24" xml:space="preserve">
<g id="图层_1" display="none">
	<g display="inline">
		<g>
			<path fill="#40AF36" d="M10.5,3.5h-4v2h4V3.5z M1.491,19.508l3.018,3.99h14.98l3.017-3.99H1.491z M22.5,1.492L1.5,1.5v17h21
				V1.492z M12.5,4.5h1v4h2v-4h1v5h-4V4.5z M9.5,15.5h-1v1h-2v-1h-1v-1h1v1h2v-3h1V15.5z M9.5,11.5h-1v-1h1V11.5z M11.5,16.5h-1v-4
				h1V16.5z M11.5,11.5h-1v-1h1V11.5z M11.5,6.5h-1v2h1v1h-2v-3h-3v3h-1v-7h6V6.5z M17.5,14.5h-4v1h4v1h-5v-5h5V14.5z M18.5,9.5h-1
				v-4h1V9.5z M18.5,4.5h-1v-1h1V4.5z M16.5,12.5h-3v1h3V12.5z"/>
		</g>
	</g>
</g>
<g id="图层_1_x5F_复制" display="none">
	<g display="inline">
		<path fill="#40AF36" d="M5.742,15.943c0,0.624,0.504,0.947,0.936,0.947c0.408,0,0.947-0.299,1.199-0.611v-1.751
			c-0.252,0.144-1.007,0.432-1.271,0.54C6.066,15.271,5.742,15.5,5.742,15.943z"/>
		<path fill="#40AF36" d="M13.733,6.09c-0.6,0-1.235,0.527-1.415,1.499c0.275,0,1.967-0.024,2.482-0.036c0.3,0,0.3-0.12,0.3-0.192
			C15.101,6.689,14.597,6.09,13.733,6.09z"/>
		<polygon fill="#40AF36" points="1.491,19.508 4.509,23.498 19.489,23.498 22.506,19.508 		"/>
		<path fill="#40AF36" d="M22.5,1.492L1.5,1.5v17h21V1.492z M8.525,17.406c-0.024,0-0.264-0.096-0.384-0.215
			c-0.144-0.156-0.192-0.301-0.264-0.564c-0.468,0.36-1.007,0.779-1.451,0.779c-0.828,0-1.391-0.623-1.391-1.367
			c0-0.539,0.372-0.923,1.199-1.175c0.612-0.18,1.367-0.468,1.643-0.636c0-0.588-0.012-1.631-1.091-1.631
			c-0.192,0.012-0.839,0.06-1.043,1.02c-0.024,0.084-0.096,0.203-0.264,0.203s-0.36-0.168-0.36-0.407
			c0-0.181,0.144-0.323,0.336-0.432c0.3-0.204,1.103-0.696,1.691-0.828c0.588,0,1.331,0.383,1.331,1.439v2.579
			c0,0.491,0.18,0.684,0.432,0.684c0.204,0,0.396-0.072,0.527-0.156l0.108,0.204L8.525,17.406z M9.747,6.282v4.677H9.615
			L4.086,4.663H4.062v3.19C4.074,9.064,4.086,9.724,4.17,10.06c0.108,0.372,0.468,0.587,1.271,0.647v0.168H2.455v-0.168
			c0.708-0.048,1.043-0.288,1.14-0.624c0.096-0.36,0.132-1.02,0.132-2.231V5.25c0-1.067-0.06-1.007-0.276-1.271
			c-0.204-0.24-0.456-0.372-1.091-0.444V3.367h1.475L9.375,9.7h0.036V6.282c0-2.339-0.012-2.651-1.416-2.747V3.367h2.974v0.168
			c-0.695,0.06-0.995,0.288-1.103,0.636C9.759,4.542,9.747,5.154,9.747,6.282z M15.604,17.275h-2.314v-0.168
			c0.815-0.049,0.959-0.217,0.959-1.008v-1.967c0-0.684-0.191-1.451-1.295-1.451c-0.588,0-1.199,0.359-1.571,0.731v2.698
			c0,0.768,0.12,0.947,0.947,0.996v0.168h-2.41v-0.168c0.695-0.049,0.887-0.229,0.887-0.947v-2.411c0-0.804-0.084-0.852-0.755-0.983
			v-0.156c0.479-0.12,0.959-0.228,1.331-0.503v0.996c0.24-0.145,0.54-0.36,0.911-0.612c0.336-0.204,0.636-0.336,0.972-0.336
			c0.995,0,1.56,0.612,1.56,1.559V16.1c0,0.84,0.107,0.959,0.779,1.008V17.275z M15.628,7.757c-0.191,0.036-1.727,0.168-3.382,0.216
			c-0.012,1.823,1.079,2.471,1.907,2.471c0.407,0,0.839-0.084,1.451-0.66l0.132,0.18c-0.708,0.816-1.523,1.043-1.799,1.043
			c-1.415,0-2.291-1.127-2.291-2.398c0-1.763,1.439-2.854,2.411-2.854c1.031,0,1.774,0.839,1.774,1.691
			C15.832,7.685,15.82,7.721,15.628,7.757z M17.825,17.406c-0.623,0-1.127-0.215-1.295-0.395c-0.084-0.192-0.144-0.924-0.18-1.309
			l0.18-0.06c0.228,0.768,0.768,1.499,1.499,1.499c0.504,0,0.96-0.287,0.96-0.947c0-0.635-0.408-0.947-0.996-1.188
			c-0.756-0.287-1.427-0.684-1.427-1.439c0-0.743,0.671-1.427,1.715-1.415c0.432,0,0.72,0.096,0.936,0.192
			c0.084,0.275,0.191,0.875,0.228,1.211l-0.168,0.072c-0.203-0.6-0.647-1.211-1.259-1.211c-0.588,0-0.888,0.408-0.888,0.887
			c0,0.588,0.588,0.876,1.067,1.068c0.84,0.323,1.427,0.755,1.427,1.535C19.624,16.867,18.749,17.406,17.825,17.406z M21.868,10.875
			h-2.375v-0.168c0.384-0.048,0.576-0.108,0.576-0.264c0-0.084-0.048-0.18-0.132-0.324l-1.092-1.535
			C18.51,9.1,18.21,9.532,17.946,9.976c-0.108,0.192-0.156,0.324-0.156,0.42c0,0.191,0.192,0.251,0.624,0.312v0.168h-2.255v-0.168
			c0.899-0.108,0.888-0.168,1.439-0.839c0.384-0.492,0.707-0.972,1.115-1.511l-1.079-1.487c-0.384-0.54-0.588-0.731-1.308-0.815
			V5.886h2.219v0.168c-0.384,0.06-0.552,0.12-0.552,0.264c0,0.084,0.06,0.192,0.18,0.336l0.852,1.188
			c0.204-0.336,0.456-0.708,0.756-1.211c0.072-0.12,0.107-0.216,0.107-0.3c0-0.168-0.18-0.228-0.539-0.276V5.886h2.326v0.168
			c-0.839,0.072-1.079,0.24-1.57,0.828c-0.204,0.251-0.528,0.624-0.924,1.175l1.295,1.799c0.444,0.588,0.468,0.696,1.392,0.852
			V10.875z"/>
		<path fill="#40AF36" d="M14.801,7.553c-0.516,0.012-2.207,0.036-2.482,0.036c0.18-0.972,0.815-1.499,1.415-1.499
			c0.863,0,1.367,0.6,1.367,1.271C15.101,7.433,15.101,7.553,14.801,7.553z"/>
	</g>
</g>
<g id="图层_1_x5F_复制_2">
	<g>
		<path fill="#40AF36" d="M6.707,14.77C6.6,14.88,6.546,15.023,6.546,15.2c0,0.199,0.06,0.366,0.178,0.502s0.268,0.203,0.447,0.203
			c0.16,0,0.317-0.055,0.474-0.164s0.265-0.239,0.325-0.39s0.09-0.422,0.09-0.817V14.26c-0.143,0.059-0.366,0.127-0.669,0.205
			C7.042,14.557,6.814,14.658,6.707,14.77z"/>
		<path fill="#40AF36" d="M12.615,5.117c-0.238,0-0.438,0.106-0.601,0.319c-0.166,0.216-0.248,0.516-0.244,0.902h1.685
			c-0.01-0.405-0.096-0.71-0.26-0.914C13.033,5.219,12.84,5.117,12.615,5.117z"/>
		<path fill="#40AF36" d="M22.5,1.492L1.5,1.5v17h21V1.492z M8.294,16.75l-0.146-0.566c-0.192,0.229-0.398,0.399-0.618,0.516
			c-0.22,0.115-0.453,0.173-0.701,0.173c-0.414,0-0.752-0.14-1.016-0.418s-0.396-0.649-0.396-1.112c0-0.293,0.054-0.549,0.161-0.768
			s0.259-0.393,0.454-0.523s0.508-0.246,0.938-0.348c0.521-0.12,0.884-0.232,1.089-0.337c0-0.288-0.021-0.478-0.061-0.567
			s-0.116-0.164-0.225-0.221s-0.263-0.086-0.461-0.086c-0.202,0-0.36,0.045-0.476,0.137s-0.209,0.262-0.281,0.513l-1.021-0.225
			c0.124-0.524,0.328-0.901,0.613-1.13s0.694-0.344,1.228-0.344c0.475,0,0.838,0.067,1.089,0.2c0.25,0.134,0.43,0.315,0.537,0.545
			c0.107,0.23,0.161,0.648,0.161,1.254l-0.01,1.604c0,0.449,0.018,0.783,0.054,1.004c0.036,0.22,0.103,0.453,0.2,0.701H8.294z
			 M9.685,9.375H8.494L6.13,4.707v4.668H5.027V2.217h1.152l2.402,4.78v-4.78h1.104V9.375z M14.144,16.75h-1.128v-2.649
			c0-0.531-0.021-0.885-0.063-1.062c-0.043-0.176-0.121-0.311-0.237-0.405c-0.115-0.095-0.246-0.142-0.393-0.142
			c-0.189,0-0.36,0.061-0.513,0.184c-0.153,0.122-0.26,0.291-0.322,0.506s-0.093,0.621-0.093,1.217v2.352h-1.128v-5.186h1.045v0.757
			c0.186-0.293,0.395-0.513,0.627-0.659s0.491-0.22,0.774-0.22c0.328,0,0.606,0.085,0.832,0.256c0.227,0.171,0.383,0.391,0.469,0.66
			c0.087,0.268,0.13,0.657,0.13,1.166V16.75z M14.568,7.178H11.75c0.006,0.412,0.099,0.73,0.277,0.956
			c0.178,0.225,0.393,0.338,0.645,0.338c0.361,0,0.604-0.248,0.725-0.742l1.117,0.229c-0.15,0.521-0.383,0.907-0.699,1.16
			s-0.7,0.378-1.153,0.378c-0.629,0-1.115-0.21-1.457-0.631c-0.404-0.489-0.606-1.174-0.606-2.055c0-0.867,0.204-1.562,0.61-2.084
			c0.345-0.44,0.791-0.66,1.338-0.66c0.608,0,1.086,0.225,1.43,0.675c0.398,0.515,0.596,1.275,0.596,2.279L14.568,7.178z
			 M18.35,16.383c-0.343,0.326-0.817,0.489-1.423,0.489c-0.551,0-1-0.136-1.348-0.407c-0.349-0.272-0.578-0.668-0.688-1.189
			l1.128-0.21c0.098,0.544,0.4,0.815,0.908,0.815c0.27,0,0.472-0.053,0.605-0.156c0.133-0.104,0.2-0.239,0.2-0.406
			c0-0.113-0.029-0.203-0.088-0.268c-0.063-0.065-0.185-0.123-0.367-0.172c-0.924-0.245-1.512-0.479-1.762-0.701
			c-0.313-0.277-0.469-0.656-0.469-1.14s0.152-0.87,0.459-1.16c0.306-0.291,0.75-0.436,1.333-0.436c0.557,0,0.979,0.108,1.27,0.325
			c0.289,0.216,0.493,0.565,0.61,1.047l-1.06,0.239c-0.095-0.417-0.361-0.625-0.801-0.625c-0.277,0-0.474,0.04-0.591,0.12
			s-0.176,0.184-0.176,0.311c0,0.114,0.054,0.209,0.161,0.283c0.107,0.079,0.44,0.197,1,0.355c0.628,0.178,1.055,0.393,1.279,0.643
			c0.222,0.251,0.333,0.585,0.333,1.002C18.865,15.645,18.693,16.058,18.35,16.383z M17.999,9.375l-0.872-1.511l-0.87,1.511h-1.313
			l1.525-2.652l-1.462-2.534h1.377l0.773,1.337l0.77-1.337h1.318l-1.429,2.479l1.565,2.707H17.999z"/>
		<polygon fill="#40AF36" points="1.491,19.508 4.509,23.498 19.489,23.498 22.506,19.508 		"/>
		<path fill="#40AF36" d="M11.77,6.338c-0.003-0.386,0.078-0.686,0.244-0.902c0.163-0.212,0.363-0.319,0.601-0.319
			c0.225,0,0.418,0.102,0.58,0.307c0.164,0.204,0.25,0.509,0.26,0.914H11.77z"/>
	</g>
</g>
<g id="图层_1_x5F_复制_3" display="none">
	<path display="inline" fill="#40AF36" d="M1.491,19.508l3.018,3.99h14.98l3.017-3.99H1.491z M22.5,1.492L1.5,1.5v17h21V1.492z"/>
</g>
</svg>
