<?xml version="1.0" encoding="utf-8"?>
<!-- Generator: Adobe Illustrator 16.0.0, SVG Export Plug-In . SVG Version: 6.00 Build 0)  -->
<!DOCTYPE svg PUBLIC "-//W3C//DTD SVG 1.1//EN" "http://www.w3.org/Graphics/SVG/1.1/DTD/svg11.dtd">
<svg version="1.1" id="图层_1" xmlns="http://www.w3.org/2000/svg" xmlns:xlink="http://www.w3.org/1999/xlink" x="0px" y="0px"
	 width="24px" height="24px" viewBox="0 0 24 24" enable-background="new 0 0 24 24" xml:space="preserve">
<g>
	<g>
		<path fill-rule="evenodd" clip-rule="evenodd" fill="#40AF36" d="M22.5,1.492H1.498v17.006H22.5V1.492z M8.938,10.469H7.5V11.5h-1
			v-1.031h-4V9.5h4v-1h1v1h1.438V10.469z M11.989,12.516c-1.389,0-2.516-1.126-2.516-2.516c0-1.39,1.126-2.516,2.516-2.516
			c1.39,0,2.515,1.126,2.515,2.516C14.504,11.389,13.379,12.516,11.989,12.516z M15.023,8.469H15.5v-1h1v-1h1v-1h1V4.5h-0.688V3.469
			H20.5v2.719h-1V5.5h-1v1h-1v1h-1v1h-1v0.463h-0.477V8.469z M20.5,16.5h-2.688v-1.031H18.5V14.5h-1v-1h-1v-1h-1v-1h-0.475v-0.493
			H15.5v0.461h1v1h1v1h1v1h1v-0.688h1V16.5z M21.484,10.513H20.5V11.5h-1v-0.987h-4.24V9.487h4.24V8.469h1v1.019h0.984V10.513z
			 M1.491,19.508l3.018,3.99h14.979l3.018-3.99H1.491z"/>
	</g>
</g>
</svg>
