<?xml version="1.0" encoding="utf-8"?>
<!-- Generator: Adobe Illustrator 16.0.0, SVG Export Plug-In . SVG Version: 6.00 Build 0)  -->
<!DOCTYPE svg PUBLIC "-//W3C//DTD SVG 1.1//EN" "http://www.w3.org/Graphics/SVG/1.1/DTD/svg11.dtd">
<svg version="1.1" id="图层_1" xmlns="http://www.w3.org/2000/svg" xmlns:xlink="http://www.w3.org/1999/xlink" x="0px" y="0px"
	 width="24px" height="24px" viewBox="0 0 24 24" enable-background="new 0 0 24 24" xml:space="preserve">
<g>
	<g>
		<path fill-rule="evenodd" clip-rule="evenodd" fill="#40AF36" d="M6.5,1.469c-0.106,0-0.206,0.025-0.31,0.031h0.62
			C6.706,1.494,6.606,1.469,6.5,1.469z M9.328,9.328l0.69,0.69c0.914-0.906,1.481-2.161,1.481-3.55c0-1.373-0.555-2.615-1.45-3.519
			L9.328,3.672C10.052,4.396,10.5,5.396,10.5,6.5S10.052,8.604,9.328,9.328z M8.644,8.644C9.192,8.095,9.531,7.337,9.531,6.5
			S9.192,4.905,8.644,4.356L7.937,5.063C8.304,5.431,8.531,5.939,8.531,6.5S8.304,7.569,7.937,7.937L8.644,8.644z M6.5,7.5
			c0.552,0,1-0.448,1-1s-0.448-1-1-1s-1,0.448-1,1S5.948,7.5,6.5,7.5z M3.672,9.328C2.948,8.604,2.5,7.604,2.5,6.5
			s0.448-2.104,1.172-2.828L2.95,2.95C2.055,3.854,1.5,5.096,1.5,6.469c0,1.389,0.567,2.644,1.481,3.55L3.672,9.328z M21.5,15.5h-18
			c-1.104,0-2,0.896-2,2v4c0,1.104,0.896,2,2,2h18c1.104,0,2-0.896,2-2v-4C23.5,16.396,22.604,15.5,21.5,15.5z M11.5,19.559
			c0,0.52-0.448,0.941-1,0.941H4.469c-0.552,0-1-0.422-1-0.941V19.41c0-0.52,0.448-0.941,1-0.941H10.5c0.552,0,1,0.422,1,0.941
			V19.559z M14.508,20.516c-0.565,0-1.023-0.458-1.023-1.023s0.458-1.023,1.023-1.023s1.023,0.458,1.023,1.023
			S15.073,20.516,14.508,20.516z M17.508,20.516c-0.565,0-1.023-0.458-1.023-1.023s0.458-1.023,1.023-1.023s1.023,0.458,1.023,1.023
			S18.073,20.516,17.508,20.516z M20.508,20.516c-0.565,0-1.023-0.458-1.023-1.023s0.458-1.023,1.023-1.023s1.023,0.458,1.023,1.023
			S21.073,20.516,20.508,20.516z M4.356,8.644l0.707-0.707C4.696,7.569,4.469,7.061,4.469,6.5s0.228-1.069,0.595-1.437L4.356,4.356
			C3.808,4.905,3.469,5.663,3.469,6.5S3.808,8.095,4.356,8.644z M7.5,8.844h-2v5.594h2V8.844z"/>
	</g>
</g>
</svg>
