<?xml version="1.0" encoding="utf-8"?>
<!-- Generator: Adobe Illustrator 16.0.0, SVG Export Plug-In . SVG Version: 6.00 Build 0)  -->
<!DOCTYPE svg PUBLIC "-//W3C//DTD SVG 1.1//EN" "http://www.w3.org/Graphics/SVG/1.1/DTD/svg11.dtd">
<svg version="1.1" id="图层_1" xmlns="http://www.w3.org/2000/svg" xmlns:xlink="http://www.w3.org/1999/xlink" x="0px" y="0px"
	 width="24px" height="24px" viewBox="0 0 24 24" enable-background="new 0 0 24 24" xml:space="preserve">
<g>
	<g>
		<path fill-rule="evenodd" clip-rule="evenodd" fill="#40AF36" d="M21,2.5H3c-1.104,0-2,0.896-2,2v12c0,1.104,0.896,2,2,2h18
			c1.104,0,2-0.896,2-2v-12C23,3.396,22.104,2.5,21,2.5z M21,16.5H3v-12h18V16.5z M15.961,21.491c-2.084,0-1.997-1.997-1.997-1.997
			H9.996c0,0,0.195,1.999-2.057,1.999c-0.713,0-0.796,1.007-0.014,1.007c0.566,0,6.404,0,8.049,0
			C16.699,22.5,16.622,21.491,15.961,21.491z"/>
	</g>
</g>
</svg>
