<?xml version="1.0" encoding="utf-8"?>
<!-- Generator: Adobe Illustrator 16.0.0, SVG Export Plug-In . SVG Version: 6.00 Build 0)  -->
<!DOCTYPE svg PUBLIC "-//W3C//DTD SVG 1.1//EN" "http://www.w3.org/Graphics/SVG/1.1/DTD/svg11.dtd">
<svg version="1.1" id="图层_1" xmlns="http://www.w3.org/2000/svg" xmlns:xlink="http://www.w3.org/1999/xlink" x="0px" y="0px"
	 width="24px" height="24px" viewBox="0 0 24 24" enable-background="new 0 0 24 24" xml:space="preserve">
<g>
	<g>
		<path fill-rule="evenodd" clip-rule="evenodd" fill="#40AF36" d="M1.5,1.516L1.492,18.469L22.5,18.463V1.5L1.5,1.516z
			 M9.929,15.324l-0.332,0.332c-0.39,0.391-1.023,0.391-1.414,0L6.04,13.513c-0.39-0.39-0.39-1.023,0-1.414l0.332-0.332
			c0.391-0.39,1.024-0.39,1.414,0l2.144,2.143C10.319,14.301,10.319,14.935,9.929,15.324z M13.219,8.5c0,0.552-0.448,1-1,1H11.75
			c-0.552,0-1-0.448-1-1V5.469c0-0.552,0.448-1,1-1h0.469c0.552,0,1,0.448,1,1V8.5z M17.929,13.513l-2.144,2.144
			c-0.391,0.391-1.023,0.391-1.414,0l-0.332-0.332c-0.39-0.39-0.39-1.023,0-1.414l2.145-2.143c0.391-0.39,1.023-0.39,1.414,0
			l0.331,0.332C18.319,12.489,18.319,13.123,17.929,13.513z M4.492,23.469L19.5,23.463l3-3.963l-21,0.016L4.492,23.469z"/>
	</g>
</g>
</svg>
