<?xml version="1.0" encoding="utf-8"?>
<!-- Generator: Adobe Illustrator 16.0.0, SVG Export Plug-In . SVG Version: 6.00 Build 0)  -->
<!DOCTYPE svg PUBLIC "-//W3C//DTD SVG 1.1//EN" "http://www.w3.org/Graphics/SVG/1.1/DTD/svg11.dtd">
<svg version="1.1" id="图层_1" xmlns="http://www.w3.org/2000/svg" xmlns:xlink="http://www.w3.org/1999/xlink" x="0px" y="0px"
	 width="24px" height="24px" viewBox="0 0 24 24" enable-background="new 0 0 24 24" xml:space="preserve">
<g>
	<g>
		<path fill-rule="evenodd" clip-rule="evenodd" fill="#40AF36" d="M17.457-0.017H6.543c-1.435,0-2.035,0.702-2.035,2.034v19.965
			c0,1.344,0.658,2.033,2.004,2.033h10.945c1.438,0,2.035-0.658,2.035-2.033V2.018C19.492,0.686,18.864-0.017,17.457-0.017z
			 M14.988,0.972c0.292,0,0.529,0.23,0.529,0.516s-0.237,0.516-0.529,0.516s-0.528-0.23-0.528-0.516S14.696,0.972,14.988,0.972z
			 M10.815,0.987H13.2c0.204,0,0.368,0.231,0.368,0.516c0,0.285-0.164,0.516-0.368,0.516h-2.385c-0.204,0-0.368-0.231-0.368-0.516
			C10.447,1.218,10.611,0.987,10.815,0.987z M12.482,22.96c-0.472,0-0.854-0.415-0.854-0.927s0.383-0.927,0.854-0.927
			s0.854,0.415,0.854,0.927S12.954,22.96,12.482,22.96z M18.504,19.994H5.483L5.508,3.007h12.996V19.994z"/>
	</g>
</g>
</svg>
