<?xml version="1.0" encoding="utf-8"?>
<!-- Generator: Adobe Illustrator 16.0.0, SVG Export Plug-In . SVG Version: 6.00 Build 0)  -->
<!DOCTYPE svg PUBLIC "-//W3C//DTD SVG 1.1//EN" "http://www.w3.org/Graphics/SVG/1.1/DTD/svg11.dtd">
<svg version="1.1" id="图层_1" xmlns="http://www.w3.org/2000/svg" xmlns:xlink="http://www.w3.org/1999/xlink" x="0px" y="0px"
	 width="24px" height="24px" viewBox="0 0 24 24" enable-background="new 0 0 24 24" xml:space="preserve">
<g>
	<g>
		<path fill-rule="evenodd" clip-rule="evenodd" fill="#31BD16" d="M4.496,22.984l15.008-0.006l3-3.963l-21,0.016L4.496,22.984z
			 M1.504,1.031L1.496,17.984l21.008-0.006V1.016L1.504,1.031z M12.02,16.047c-3.599,0-6.516-2.917-6.516-6.516
			s2.917-6.516,6.516-6.516s6.516,2.917,6.516,6.516S15.618,16.047,12.02,16.047z M12.012,4.016c-3.042,0-5.508,2.466-5.508,5.508
			s2.466,5.508,5.508,5.508s5.508-2.466,5.508-5.508S15.054,4.016,12.012,4.016z M12.015,13.037c-1.938,0-3.511-1.572-3.511-3.511
			s1.572-3.511,3.511-3.511s3.511,1.572,3.511,3.511S13.953,13.037,12.015,13.037z M12.008,7.016c-1.383,0-2.504,1.121-2.504,2.504
			c0,1.384,1.121,2.505,2.504,2.505s2.504-1.121,2.504-2.505C14.512,8.137,13.391,7.016,12.008,7.016z M12.504,9.707v0.271
			L12.268,9.98c-0.074,0.041-0.155,0.071-0.246,0.071c-0.089,0-0.169-0.028-0.242-0.068l-0.284,0.001l0.008-0.953l0.477-0.007
			c0.014-0.001,0.026-0.008,0.041-0.008c0.012,0,0.022,0.006,0.035,0.007l0.448-0.007v0.344c0.02,0.055,0.035,0.112,0.035,0.174
			S12.523,9.652,12.504,9.707z"/>
	</g>
</g>
</svg>
