<?xml version="1.0" encoding="utf-8"?>
<!-- Generator: Adobe Illustrator 16.0.0, SVG Export Plug-In . SVG Version: 6.00 Build 0)  -->
<!DOCTYPE svg PUBLIC "-//W3C//DTD SVG 1.1//EN" "http://www.w3.org/Graphics/SVG/1.1/DTD/svg11.dtd">
<svg version="1.1" id="图层_1" xmlns="http://www.w3.org/2000/svg" xmlns:xlink="http://www.w3.org/1999/xlink" x="0px" y="0px"
	 width="24px" height="24px" viewBox="0 0 24 24" enable-background="new 0 0 24 24" xml:space="preserve">
<g>
	<g>
		<path fill-rule="evenodd" clip-rule="evenodd" fill="#31BD16" d="M4.496,22.984l15.008-0.006l3-3.963l-21,0.016L4.496,22.984z
			 M1.504,1.031L1.496,17.984l21.008-0.006V1.016L1.504,1.031z M16.5,7.181l3.162-3.163l0.811-0.002L20.464,4.85l-3.101,3.132
			l-0.866,0.009L16.5,7.181z M8.504,10.016h-5v-1h5V10.016z M13.504,14.547l-2.042-2.524l-1.958-1.007v-3l2.005-0.994l1.995-2.568
			c0,0,2,2.503,2,5.094C15.504,12.076,13.504,14.547,13.504,14.547z M19.662,14.982L16.5,11.819l-0.003-0.81l0.866,0.009
			l3.101,3.132l0.009,0.834L19.662,14.982z M20.488,9.969h-4.031v-1h4.031V9.969z"/>
	</g>
</g>
</svg>
