<?xml version="1.0" encoding="utf-8"?>
<!-- Generator: Adobe Illustrator 16.0.0, SVG Export Plug-In . SVG Version: 6.00 Build 0)  -->
<!DOCTYPE svg PUBLIC "-//W3C//DTD SVG 1.1//EN" "http://www.w3.org/Graphics/SVG/1.1/DTD/svg11.dtd">
<svg version="1.1" id="图层_1" xmlns="http://www.w3.org/2000/svg" xmlns:xlink="http://www.w3.org/1999/xlink" x="0px" y="0px"
	 width="24px" height="24px" viewBox="0 0 24 24" enable-background="new 0 0 24 24" xml:space="preserve">
<g>
	<g>
		<path fill-rule="evenodd" clip-rule="evenodd" fill="#40AF36" d="M7.504,7.47h5.001V6.511H7.504V7.47z M13.496,7.47h4.012V6.511
			h-4.012V7.47z M14.5,4.454H7.504v1.053H14.5V4.454z M19.502,3.494L17.49,1.5H5.51v8.008h13.992V3.494z M18.488,8.496H6.492v-6.03
			h10.967l1.029,1.029V8.496z M21.424,8.496l-0.936-0.008v2.011L4.505,10.504L4.501,8.49L3.588,8.496
			C2.435,8.496,1.5,9.43,1.5,10.583v7.839c0,1.153,0.935,2.088,2.088,2.088l0.908-0.003L4.5,18.512l16.014-0.004v2.003h0.91
			c1.153,0,2.088-0.935,2.088-2.088v-7.839C23.512,9.43,22.577,8.496,21.424,8.496z M5.494,13.502H3.497v-1.037h1.998V13.502z
			 M7.488,13.502H6.503v-1.037h0.985V13.502z M9.468,17.456H8.493v-1.963h0.975V17.456z M11.468,17.456h-0.975v-1.963h0.975V17.456z
			 M13.468,17.456h-0.975v-1.963h0.975V17.456z M15.468,17.456h-0.975v-1.963h0.975V17.456z M17.467,17.456h-0.974v-1.963h0.974
			V17.456z M20.502,14.465c-0.553,0-1-0.448-1-1.001c0-0.552,0.447-1,1-1s1.001,0.448,1.001,1
			C21.503,14.017,21.055,14.465,20.502,14.465z M5.503,23.428h13.991v-3.96H5.503V23.428z M6.489,20.482h12.024v2H6.489V20.482z"/>
	</g>
</g>
</svg>
