<?xml version="1.0" encoding="utf-8"?>
<!-- Generator: Adobe Illustrator 16.0.0, SVG Export Plug-In . SVG Version: 6.00 Build 0)  -->
<!DOCTYPE svg PUBLIC "-//W3C//DTD SVG 1.1//EN" "http://www.w3.org/Graphics/SVG/1.1/DTD/svg11.dtd">
<svg version="1.1" id="图层_1" xmlns="http://www.w3.org/2000/svg" xmlns:xlink="http://www.w3.org/1999/xlink" x="0px" y="0px"
	 width="24px" height="24px" viewBox="0 0 24 24" enable-background="new 0 0 24 24" xml:space="preserve">
<g>
	<g>
		<path fill-rule="evenodd" clip-rule="evenodd" fill="#40AF36" d="M4.492,23.469L19.5,23.463l3-3.963h-21L4.492,23.469z M13.5,7.5
			c0.553,0,1-0.448,1-1s-0.447-1-1-1c-0.552,0-1,0.448-1,1S12.948,7.5,13.5,7.5z M10.5,7.5c0.552,0,1-0.448,1-1s-0.448-1-1-1
			s-1,0.448-1,1S9.948,7.5,10.5,7.5z M1.5,1.5L1.492,18.469L22.5,18.463V1.5H1.5z M12,3.5c2.33,0,4.219,1.466,4.219,3.274
			c0,1.095-0.738,1.86-1.768,2.311C14.224,10.461,13.214,11.5,12,11.5s-2.224-1.039-2.451-2.415C8.52,8.634,7.781,7.869,7.781,6.774
			C7.781,4.966,9.67,3.5,12,3.5z M17.5,12.5c0,0.553-0.447,1-1,1c-0.313,0-0.582-0.153-0.766-0.379L13.419,14l2.315,0.879
			c0.184-0.226,0.452-0.379,0.766-0.379c0.553,0,1,0.447,1,1c0,0.016-0.009,0.029-0.009,0.045l0.009,0.004l-0.011,0.005
			C17.46,16.08,17.033,16.5,16.5,16.5c-0.41,0-0.761-0.248-0.915-0.601L12,14.538l-3.584,1.36C8.261,16.252,7.91,16.5,7.5,16.5
			c-0.533,0-0.958-0.419-0.989-0.945L6.5,15.549l0.009-0.004C6.508,15.529,6.5,15.516,6.5,15.5c0-0.553,0.448-1,1-1
			c0.313,0,0.582,0.153,0.765,0.379L10.581,14l-2.316-0.879C8.082,13.347,7.813,13.5,7.5,13.5c-0.552,0-1-0.447-1-1
			c0-0.016,0.008-0.029,0.009-0.045L6.5,12.451l0.011-0.006C6.542,11.92,6.967,11.5,7.5,11.5c0.41,0,0.76,0.248,0.915,0.601
			L12,13.461l3.586-1.361c0.154-0.353,0.504-0.6,0.914-0.6c0.533,0,0.96,0.42,0.989,0.946l0.011,0.005l-0.009,0.003
			C17.491,12.471,17.5,12.484,17.5,12.5z"/>
	</g>
</g>
</svg>
