<?xml version="1.0" encoding="utf-8"?>
<!-- Generator: Adobe Illustrator 16.0.0, SVG Export Plug-In . SVG Version: 6.00 Build 0)  -->
<!DOCTYPE svg PUBLIC "-//W3C//DTD SVG 1.1//EN" "http://www.w3.org/Graphics/SVG/1.1/DTD/svg11.dtd">
<svg version="1.1" id="图层_1" xmlns="http://www.w3.org/2000/svg" xmlns:xlink="http://www.w3.org/1999/xlink" x="0px" y="0px"
	 width="16px" height="16px" viewBox="0 0 16 16" enable-background="new 0 0 16 16" xml:space="preserve">
<g>
	<g>
		<path fill-rule="evenodd" clip-rule="evenodd" fill="#FC5043" d="M12,8c-2.209,0-4,1.791-4,4s1.791,4,4,4s4-1.791,4-4
			S14.209,8,12,8z M13.768,13.768c-0.391,0.391-1.023,0.391-1.414,0l-2.121-2.121c-0.391-0.391-0.391-1.023,0-1.414
			s1.023-0.391,1.414,0l2.121,2.121C14.158,12.744,14.158,13.377,13.768,13.768z"/>
	</g>
</g>
<g>
	<g>
		<path fill-rule="evenodd" clip-rule="evenodd" fill="#31BD16" d="M7.11,13.016H0l2.018,2.99h7.005
			C8.061,15.284,7.357,14.237,7.11,13.016z M0.006,0v12.006H7.01c0.002-1.13,0.389-2.164,1.021-3H5.019
			c-0.205,0.601-0.767,1.035-1.436,1.035c-0.842,0-1.524-0.683-1.524-1.524c0-0.841,0.682-1.523,1.524-1.523
			C4.242,6.993,4.797,7.415,5.01,8h4.046c0.566-0.418,1.213-0.733,1.927-0.883c0.185-0.079,0.387-0.124,0.601-0.124
			c0.099,0,0.194,0.011,0.288,0.029c0.049-0.001,0.095-0.015,0.144-0.015c1.128,0,2.157,0.386,2.994,1.015V0H0.006z M9.746,5.868
			c0,0-0.824-0.83-2.212-0.83c-1.49,0-2.263,0.88-2.263,0.88L4.567,5.089c0,0,1.092-1.106,2.992-1.106
			c1.785,0,2.892,1.106,2.892,1.106L9.746,5.868z M11.329,4.521c0,0-1.4-1.433-3.795-1.433c-2.495,0-3.821,1.482-3.821,1.482
			L3.008,3.741c0,0,1.67-1.735,4.55-1.735c2.738,0,4.476,1.685,4.476,1.685L11.329,4.521z"/>
	</g>
</g>
</svg>
