<?xml version="1.0" encoding="utf-8"?>
<!-- Generator: Adobe Illustrator 16.0.0, SVG Export Plug-In . SVG Version: 6.00 Build 0)  -->
<!DOCTYPE svg PUBLIC "-//W3C//DTD SVG 1.1//EN" "http://www.w3.org/Graphics/SVG/1.1/DTD/svg11.dtd">
<svg version="1.1" id="图层_1" xmlns="http://www.w3.org/2000/svg" xmlns:xlink="http://www.w3.org/1999/xlink" x="0px" y="0px"
	 width="16px" height="16px" viewBox="0 0 16 16" enable-background="new 0 0 16 16" xml:space="preserve">
<g>
	<g>
		<path fill-rule="evenodd" clip-rule="evenodd" fill="#31BD16" d="M0.006,0v12.006H7.01c0-0.332,0.035-0.655,0.098-0.969H2.503
			v-0.976c0-1.673,1.316-3.042,2.924-3.042h4.166c0.365,0,0.711,0.079,1.034,0.207c0.442-0.128,0.902-0.219,1.387-0.219
			c1.128,0,2.157,0.387,2.994,1.016V0H0.006z M7.522,6.034c-1.335,0-2.418-1.126-2.418-2.515c0-1.389,1.083-2.515,2.418-2.515
			S9.94,2.13,9.94,3.52C9.94,4.908,8.857,6.034,7.522,6.034z M7.11,13.016H0l2.018,2.99h7.004
			C8.061,15.283,7.358,14.237,7.11,13.016z"/>
	</g>
</g>
<g>
	<g>
		<path fill-rule="evenodd" clip-rule="evenodd" fill="#FC5043" d="M12,8c-2.209,0-4,1.791-4,4s1.791,4,4,4s4-1.791,4-4
			S14.209,8,12,8z M13.768,13.768c-0.391,0.391-1.023,0.391-1.414,0l-2.121-2.121c-0.391-0.391-0.391-1.023,0-1.414
			s1.023-0.391,1.414,0l2.121,2.121C14.158,12.744,14.158,13.377,13.768,13.768z"/>
	</g>
</g>
</svg>
