<?xml version="1.0" encoding="utf-8"?>
<!-- Generator: Adobe Illustrator 16.0.0, SVG Export Plug-In . SVG Version: 6.00 Build 0)  -->
<!DOCTYPE svg PUBLIC "-//W3C//DTD SVG 1.1//EN" "http://www.w3.org/Graphics/SVG/1.1/DTD/svg11.dtd">
<svg version="1.1" id="图层_1" xmlns="http://www.w3.org/2000/svg" xmlns:xlink="http://www.w3.org/1999/xlink" x="0px" y="0px"
	 width="24px" height="24px" viewBox="0 0 24 24" enable-background="new 0 0 24 24" xml:space="preserve">
<g>
	<g>
		<path fill-rule="evenodd" clip-rule="evenodd" fill="#FC5043" d="M19,14c-2.762,0-5,2.238-5,5s2.238,5,5,5s5-2.238,5-5
			S21.762,14,19,14z M21.121,21.121c-0.391,0.391-1.023,0.391-1.414,0l-2.828-2.828c-0.391-0.391-0.391-1.023,0-1.414
			s1.023-0.391,1.414,0l2.828,2.828C21.512,20.098,21.512,20.73,21.121,21.121z"/>
	</g>
</g>
<g>
	<g>
		<path fill-rule="evenodd" clip-rule="evenodd" fill="#31BD16" d="M1.001,19.047l3.018,3.99h10.526
			c-0.95-1.061-1.533-2.455-1.535-3.99H1.001z M1.007,1.031v17.006H13.1c0.059-0.344,0.146-0.677,0.259-0.998h-5.38l2.762-6.623
			c-0.723-0.302-1.23-1.014-1.23-1.846c0-1.104,0.896-2,2-2s2,0.896,2,2c0,0.836-0.514,1.551-1.242,1.85l2.019,4.929
			c0.695-0.889,1.634-1.573,2.718-1.959l-0.119-0.101c0,0,1.781-1.742,1.781-4.719c0-3.102-1.844-4.75-1.844-4.75l1.031-0.875
			c0,0,2.156,2.076,2.156,5.656c0,1.963-0.693,3.492-1.283,4.452c0.095-0.005,0.188-0.015,0.283-0.015c1.094,0,2.117,0.298,3,0.81
			V1.031H1.007z M5.104,14.164c0,0-2.094-2.159-2.094-5.563c0-3.581,2.156-5.656,2.156-5.656L6.197,3.82c0,0-1.844,1.648-1.844,4.75
			c0,2.977,1.781,4.719,1.781,4.719L5.104,14.164z M7.322,8.57c0,1.727,1.031,2.75,1.031,2.75l-0.969,0.875
			c0,0-1.375-1.375-1.375-3.594c0-2.362,1.375-3.719,1.375-3.719l1.031,0.875C8.416,5.758,7.322,6.719,7.322,8.57z M17.01,8.602
			c0,2.219-1.375,3.594-1.375,3.594l-0.969-0.875c0,0,1.031-1.023,1.031-2.75c0-1.852-1.094-2.813-1.094-2.813l1.031-0.875
			C15.635,4.883,17.01,6.24,17.01,8.602z"/>
	</g>
</g>
</svg>
