<?xml version="1.0" encoding="utf-8"?>
<!-- Generator: Adobe Illustrator 16.0.0, SVG Export Plug-In . SVG Version: 6.00 Build 0)  -->
<!DOCTYPE svg PUBLIC "-//W3C//DTD SVG 1.1//EN" "http://www.w3.org/Graphics/SVG/1.1/DTD/svg11.dtd">
<svg version="1.1" id="图层_1" xmlns="http://www.w3.org/2000/svg" xmlns:xlink="http://www.w3.org/1999/xlink" x="0px" y="0px"
	 width="24px" height="24px" viewBox="0 0 24 24" enable-background="new 0 0 24 24" xml:space="preserve">
<g>
	<g>
		<path fill-rule="evenodd" clip-rule="evenodd" fill="#40AF36" d="M12.003,19.525c-5.571,0-10.215-2.489-11.272-5.716
			C0.583,14.339,0.497,14.9,0.497,15.5c0,4.975,5.141,8.006,11.481,8.006S23.46,20.475,23.46,15.5c0-0.569-0.081-1.102-0.215-1.607
			C22.136,17.078,17.526,19.525,12.003,19.525z M12.003,18.463c6.352,0,11.5-4.023,11.5-8.985c0-4.962-5.148-8.984-11.5-8.984
			s-11.5,4.022-11.5,8.984C0.503,14.439,5.651,18.463,12.003,18.463z M11.993,16.47L9.53,13.486h1.987v-2.988h0.983v2.988h1.988
			L11.993,16.47z M20.468,8.496v0.983h-3.989v1.987l-2.983-2.462l2.983-2.497v1.989H20.468z M11.993,1.486l2.496,2.983h-1.988v2.989
			h-0.983V4.469H9.53L11.993,1.486z M3.507,8.496h3.988V6.507l2.984,2.497l-2.984,2.462V9.479H3.507V8.496z"/>
	</g>
</g>
</svg>
