<?xml version="1.0" encoding="utf-8"?>
<!-- Generator: Adobe Illustrator 16.0.0, SVG Export Plug-In . SVG Version: 6.00 Build 0)  -->
<!DOCTYPE svg PUBLIC "-//W3C//DTD SVG 1.1//EN" "http://www.w3.org/Graphics/SVG/1.1/DTD/svg11.dtd">
<svg version="1.1" id="图层_1" xmlns="http://www.w3.org/2000/svg" xmlns:xlink="http://www.w3.org/1999/xlink" x="0px" y="0px"
	 width="24px" height="24px" viewBox="0 0 24 24" enable-background="new 0 0 24 24" xml:space="preserve">
<g>
	<g>
		<path fill-rule="evenodd" clip-rule="evenodd" fill="#40AF36" d="M10.5,3.5h-4v2h4V3.5z M1.491,19.508l3.018,3.99h14.98
			l3.017-3.99H1.491z M22.5,1.492L1.5,1.5v17h21V1.492z M12.5,4.5h1v4h2v-4h1v5h-4V4.5z M9.5,15.5h-1v1h-2v-1h-1v-1h1v1h2v-3h1V15.5
			z M9.5,11.5h-1v-1h1V11.5z M11.5,16.5h-1v-4h1V16.5z M11.5,11.5h-1v-1h1V11.5z M11.5,6.5h-1v2h1v1h-2v-3h-3v3h-1v-7h6V6.5z
			 M17.5,14.5h-4v1h4v1h-5v-5h5V14.5z M18.5,9.5h-1v-4h1V9.5z M18.5,4.5h-1v-1h1V4.5z M16.5,12.5h-3v1h3V12.5z"/>
	</g>
</g>
</svg>
