<?xml version="1.0" encoding="utf-8"?>
<!-- Generator: Adobe Illustrator 17.0.0, SVG Export Plug-In . SVG Version: 6.00 Build 0)  -->
<!DOCTYPE svg PUBLIC "-//W3C//DTD SVG 1.1//EN" "http://www.w3.org/Graphics/SVG/1.1/DTD/svg11.dtd">
<svg version="1.1" xmlns="http://www.w3.org/2000/svg" xmlns:xlink="http://www.w3.org/1999/xlink" x="0px" y="0px" width="24px"
	 height="24px" viewBox="0 0 24 24" enable-background="new 0 0 24 24" xml:space="preserve">
<g id="图层_2">
	<polygon fill="#40AF36" points="19.498,23.498 4.08,23.498 1.493,19.508 22.507,19.508 	"/>
	<path fill="#40AF36" d="M1.5,1.5v17h21v-17H1.5z M7.825,15.688H7.277v-3.595l-1.248,3.595H5.517l-1.242-3.656v3.656H3.727v-4.295
		h0.855l1.017,3.041c0.094,0.283,0.162,0.495,0.205,0.636c0.049-0.156,0.125-0.386,0.229-0.688l1.028-2.988h0.765V15.688z
		 M7.63,8.267C7.481,8.04,7.402,7.782,7.395,7.495l0.536-0.047c0.025,0.215,0.084,0.391,0.177,0.529S8.345,8.226,8.54,8.311
		s0.415,0.127,0.659,0.127c0.217,0,0.408-0.032,0.574-0.097s0.29-0.153,0.371-0.265s0.122-0.235,0.122-0.368
		c0-0.135-0.039-0.252-0.117-0.353S9.941,7.171,9.762,7.103c-0.115-0.045-0.37-0.115-0.765-0.209S8.326,6.709,8.168,6.625
		c-0.205-0.107-0.358-0.241-0.458-0.4S7.559,5.888,7.559,5.69c0-0.217,0.062-0.419,0.185-0.608s0.303-0.332,0.539-0.429
		S8.781,4.507,9.07,4.507c0.318,0,0.599,0.051,0.842,0.154s0.43,0.253,0.561,0.453s0.201,0.425,0.211,0.677L10.14,5.831
		C10.11,5.56,10.011,5.354,9.842,5.216S9.424,5.008,9.094,5.008c-0.344,0-0.594,0.063-0.751,0.189S8.106,5.475,8.106,5.652
		c0,0.154,0.056,0.281,0.167,0.381c0.109,0.1,0.395,0.202,0.857,0.306s0.779,0.196,0.951,0.274c0.25,0.115,0.435,0.261,0.554,0.438
		s0.179,0.38,0.179,0.611c0,0.229-0.065,0.444-0.196,0.646s-0.319,0.359-0.564,0.472S9.532,8.948,9.226,8.948
		c-0.389,0-0.714-0.057-0.977-0.17S7.78,8.495,7.63,8.267z M11.959,15.688H8.754v-4.295h3.105v0.507H9.322v1.315h2.376v0.504H9.322
		v1.462h2.637V15.688z M12.255,8.875h-0.568V4.58h0.568V8.875z M16.122,15.688h-0.583l-2.256-3.375v3.375h-0.545v-4.295h0.583
		l2.256,3.372v-3.372h0.545V15.688z M16.474,8.875h-3.205V4.58h3.105v0.507h-2.537v1.315h2.376v0.504h-2.376v1.462h2.637V8.875z
		 M20.106,15.121c-0.131,0.201-0.319,0.359-0.564,0.471c-0.245,0.113-0.521,0.169-0.827,0.169c-0.389,0-0.715-0.057-0.978-0.17
		s-0.469-0.284-0.617-0.511c-0.15-0.229-0.229-0.485-0.236-0.772l0.536-0.047c0.025,0.215,0.084,0.392,0.177,0.528
		c0.093,0.139,0.237,0.25,0.433,0.334c0.195,0.086,0.415,0.128,0.659,0.128c0.217,0,0.408-0.032,0.574-0.097
		s0.289-0.152,0.371-0.266c0.08-0.111,0.121-0.234,0.121-0.367c0-0.135-0.039-0.252-0.117-0.354c-0.078-0.1-0.207-0.185-0.387-0.253
		c-0.115-0.045-0.37-0.114-0.765-0.21c-0.395-0.094-0.671-0.184-0.829-0.268c-0.205-0.107-0.358-0.24-0.459-0.4
		c-0.101-0.158-0.15-0.337-0.15-0.534c0-0.217,0.062-0.419,0.185-0.608s0.303-0.332,0.539-0.429s0.499-0.146,0.788-0.146
		c0.318,0,0.6,0.051,0.842,0.154c0.244,0.103,0.431,0.253,0.562,0.453s0.201,0.425,0.211,0.677l-0.545,0.041
		c-0.029-0.271-0.129-0.477-0.298-0.615s-0.418-0.208-0.748-0.208c-0.344,0-0.595,0.063-0.752,0.189s-0.235,0.278-0.235,0.456
		c0,0.154,0.056,0.281,0.167,0.381c0.109,0.1,0.395,0.201,0.857,0.307c0.461,0.104,0.778,0.195,0.95,0.273
		c0.25,0.115,0.435,0.262,0.554,0.438c0.119,0.178,0.179,0.381,0.179,0.611C20.303,14.703,20.237,14.918,20.106,15.121z"/>
</g>
<g id="图层_1" display="none">
	<g display="inline">
		<g>
			<path fill="#40AF36" d="M1.491,19.508l3.018,3.99h14.98l3.017-3.99H1.491z M22.5,1.492L1.5,1.5v17h21V1.492z M11.5,7.5h-4v2h4v1
				h-4v3h-1v-7h5V7.5z M17.5,7.5h-4v2h4v4h-5v-1h4v-2h-4v-4h5V7.5z"/>
		</g>
	</g>
</g>
</svg>
