<?xml version="1.0" encoding="utf-8"?>
<!-- Generator: Adobe Illustrator 16.0.0, SVG Export Plug-In . SVG Version: 6.00 Build 0)  -->
<!DOCTYPE svg PUBLIC "-//W3C//DTD SVG 1.1//EN" "http://www.w3.org/Graphics/SVG/1.1/DTD/svg11.dtd">
<svg version="1.1" id="图层_1" xmlns="http://www.w3.org/2000/svg" xmlns:xlink="http://www.w3.org/1999/xlink" x="0px" y="0px"
	 width="24px" height="24px" viewBox="0 0 24 24" enable-background="new 0 0 24 24" xml:space="preserve">
<g>
	<g>
		<path fill-rule="evenodd" clip-rule="evenodd" fill="#40AF36" d="M7.496,11.149l0.818-1.25l0.354-0.632L8.707,9.3l0.016-0.023
			l0.594,0.542l1.764,1.5l2.295-4.437l0.217-0.431l0.562,0.965l0.204,0.333l-0.005,0.009l1.652,2.838l1.959-1.747l0.532,0.697V5.488
			h-11V11.149z M1.491,19.508l3.018,3.99h14.979l3.018-3.99H1.491z M15.627,12.651l-0.006,0.006l-0.174-0.301l-0.498-0.819
			l0.017-0.015l-1.352-2.34l-1.545,2.978l0.036,0.031l-0.469,0.804l-0.228,0.439l-0.46-0.431l-2.063-1.835l-1.388,1.871v1.45h11
			V9.919L15.627,12.651L15.627,12.651z M22.5,1.492H1.498v17.006H22.5V1.492z M21.5,12.469h-1.997l0.003,3.02H6.496v-2.02H2.5v-1
			h3.996v-2H2.5v-1h3.996v-2H2.5v-1h3.996V4.47h13l0.006,6.999H21.5V12.469z M21.5,8.469h-2v-1h2V8.469z"/>
	</g>
</g>
</svg>
