<?xml version="1.0" encoding="utf-8"?>
<!-- Generator: Adobe Illustrator 17.0.0, SVG Export Plug-In . SVG Version: 6.00 Build 0)  -->
<!DOCTYPE svg PUBLIC "-//W3C//DTD SVG 1.1//EN" "http://www.w3.org/Graphics/SVG/1.1/DTD/svg11.dtd">
<svg version="1.1" id="图层_1" xmlns="http://www.w3.org/2000/svg" xmlns:xlink="http://www.w3.org/1999/xlink" x="0px" y="0px"
	 width="32px" height="32px" viewBox="0 0 32 32" enable-background="new 0 0 32 32" xml:space="preserve">
<text transform="matrix(1.4537 0 0 1 6.7471 8.104)" fill="#22AC38" font-family="'SimHei'" font-size="9">SVF</text>
<rect x="6" y="9" fill="#22AC38" width="20" height="1"/>
<rect x="8" y="11" fill="#22AC38" width="1" height="1"/>
<rect x="11" y="11" fill="#22AC38" width="1" height="1"/>
<rect x="14" y="11" fill="#22AC38" width="1" height="1"/>
<rect x="17" y="11" fill="#22AC38" width="1" height="1"/>
<rect x="20" y="11" fill="#22AC38" width="1" height="1"/>
<rect x="23" y="11" fill="#22AC38" width="1" height="1"/>
<rect x="5" y="17" fill="#40AF36" width="6" height="1"/>
<rect x="5" y="19" fill="#40AF36" width="6" height="1"/>
<rect x="6" y="20" fill="#40AF36" width="1" height="1"/>
<rect x="9" y="16" fill="#40AF36" width="1" height="1"/>
<rect x="21" y="17" fill="#40AF36" width="6" height="1"/>
<rect x="21" y="19" fill="#40AF36" width="6" height="1"/>
<rect x="22" y="20" fill="#40AF36" width="1" height="1"/>
<rect x="25" y="16" fill="#40AF36" width="1" height="1"/>
<path fill="#22AC38" d="M0,0v32h32V0H0z M13,31H3v-8h10V31z M15,27h-1v-1h1V27z M18,27h-1v-1h1V27z M29,31H19v-8h10V31z M29,13
	h-6.793l2,2H28v7h-8v-7h2.793l-2-2h-9.586l-2,2H12v7H4v-7h3.793l2-2H3V1h26V13z"/>
<text transform="matrix(1 0 0 1 3 28.0337)" fill="#40AF36" font-family="'SimHei'" font-size="6">(</text>
<text transform="matrix(1 0 0 1 4.7917 27.3667)" fill="#40AF36" font-family="'SimHei'" font-size="4">(</text>
<polygon fill="#40AF36" points="5.536,30 8,26 10.464,30 "/>
<circle fill="#40AF36" cx="8" cy="26" r="1"/>
<text transform="matrix(-1 0 0 -1 12.999 23.7881)" fill="#40AF36" font-family="'SimHei'" font-size="6">(</text>
<text transform="matrix(-1 0 0 -1 11.208 24.4541)" fill="#40AF36" font-family="'SimHei'" font-size="4">(</text>
<text transform="matrix(1 0 0 1 19 28.0337)" fill="#40AF36" font-family="'SimHei'" font-size="6">(</text>
<text transform="matrix(1 0 0 1 20.7917 27.3667)" fill="#40AF36" font-family="'SimHei'" font-size="4">(</text>
<polygon fill="#40AF36" points="21.536,30 24,26 26.464,30 "/>
<circle fill="#40AF36" cx="24" cy="26" r="1"/>
<text transform="matrix(-1 0 0 -1 27.208 24.4541)" fill="#40AF36" font-family="'SimHei'" font-size="4">(</text>
<text transform="matrix(-1 0 0 -1 28.999 23.7881)" fill="#40AF36" font-family="'SimHei'" font-size="6">(</text>
</svg>
