<?xml version="1.0" encoding="utf-8"?>
<!-- Generator: Adobe Illustrator 16.0.0, SVG Export Plug-In . SVG Version: 6.00 Build 0)  -->
<!DOCTYPE svg PUBLIC "-//W3C//DTD SVG 1.1//EN" "http://www.w3.org/Graphics/SVG/1.1/DTD/svg11.dtd">
<svg version="1.1" id="图层_1" xmlns="http://www.w3.org/2000/svg" xmlns:xlink="http://www.w3.org/1999/xlink" x="0px" y="0px"
	 width="24px" height="24px" viewBox="0 0 24 24" enable-background="new 0 0 24 24" xml:space="preserve">
<g>
	<g>
		<path fill-rule="evenodd" clip-rule="evenodd" fill="#40AF36" d="M13.501,12h-3v0.969h3V12z M4.47,23h15.031l2.969-3.969H1.501
			L4.47,23z M1.498,1.001v16.987h21.005V1.001H1.498z M5.526,4.026h10.959V2.415l3.02,2.043l-3.02,2.23V5.013H5.526V4.026z
			 M8.501,12H4.47l0.016,1.032h4.015V16l-5.026,0.004l-0.014-0.996L7.47,15v-1H3.501v-2.969h5V12z M8.516,9.688l-2.987-2.23
			l2.987-2.043v1.612h10.991v0.987H8.516V9.688z M14.501,14.031h-4V16h-1v-4.969h5V14.031z M20.501,16h-5v-4.969h1v4h3v-4h1V16z"/>
	</g>
</g>
</svg>
