<?xml version="1.0" encoding="utf-8"?>
<!-- Generator: Adobe Illustrator 16.0.0, SVG Export Plug-In . SVG Version: 6.00 Build 0)  -->
<!DOCTYPE svg PUBLIC "-//W3C//DTD SVG 1.1//EN" "http://www.w3.org/Graphics/SVG/1.1/DTD/svg11.dtd">
<svg version="1.1" id="图层_1" xmlns="http://www.w3.org/2000/svg" xmlns:xlink="http://www.w3.org/1999/xlink" x="0px" y="0px"
	 width="24px" height="24px" viewBox="0 0 24 24" enable-background="new 0 0 24 24" xml:space="preserve">
<g>
	<g>
		<path fill-rule="evenodd" clip-rule="evenodd" fill="#40AF36" d="M12,18.469c6.352,0,11.5-4.022,11.5-8.984S18.352,0.5,12,0.5
			S0.5,4.522,0.5,9.484S5.648,18.469,12,18.469z M15.5,7.5h5v1h-4v3h3v-1h-2v-1h3v3h-5V7.5z M9.5,7.5h5v3h-1v1h1v1h-2v-2h-2v2h-1
			V7.5z M3.5,11.5h4v-1h-4v-3h5v1h-4v1h4v3h-5V11.5z M13.5,8.5h-3v1h3V8.5z M12,19.531c-5.581,0-10.23-2.271-11.277-5.692
			c-0.144,0.523-0.229,1.076-0.229,1.668c0,4.974,5.14,8.006,11.481,8.006s11.481-3.032,11.481-8.006c0-0.559-0.08-1.08-0.209-1.578
			C22.148,17.318,17.531,19.531,12,19.531z"/>
	</g>
</g>
</svg>
