<?xml version="1.0" encoding="utf-8"?>
<!-- Generator: Adobe Illustrator 16.0.0, SVG Export Plug-In . SVG Version: 6.00 Build 0)  -->
<!DOCTYPE svg PUBLIC "-//W3C//DTD SVG 1.1//EN" "http://www.w3.org/Graphics/SVG/1.1/DTD/svg11.dtd">
<svg version="1.1" id="图层_1" xmlns="http://www.w3.org/2000/svg" xmlns:xlink="http://www.w3.org/1999/xlink" x="0px" y="0px"
	 width="24px" height="24px" viewBox="0 0 24 24" enable-background="new 0 0 24 24" xml:space="preserve">
<g>
	<g>
		<path fill-rule="evenodd" clip-rule="evenodd" fill="#40AF36" d="M22.5,1.492H1.498v17.006H22.5V1.492z M12,3.5
			c1.381,0,2.5,1.119,2.5,2.5S13.381,8.5,12,8.5S9.5,7.381,9.5,6S10.619,3.5,12,3.5z M13.031,10l-1.063,3.469L10.844,10l1.125-1.469
			L13.031,10z M17.5,14.5c0,1.104-0.896,2-2,2h-3.531H8.5c-1.104,0-2-0.896-2-2v-4c0-1.104,0.896-2,2-2h1l2.469,8l2.531-8h1
			c1.104,0,2,0.896,2,2V14.5z M1.491,19.508l3.018,3.99h14.979l3.018-3.99H1.491z M15.537,11.676c-0.434,0-0.785,0.164-0.785,0.368
			c0,0.203,0.352,0.367,0.785,0.367s0.785-0.164,0.785-0.367C16.322,11.84,15.971,11.676,15.537,11.676z"/>
	</g>
</g>
</svg>
