<?xml version="1.0" encoding="utf-8"?>
<!-- Generator: Adobe Illustrator 16.0.0, SVG Export Plug-In . SVG Version: 6.00 Build 0)  -->
<!DOCTYPE svg PUBLIC "-//W3C//DTD SVG 1.1//EN" "http://www.w3.org/Graphics/SVG/1.1/DTD/svg11.dtd">
<svg version="1.1" id="图层_1" xmlns="http://www.w3.org/2000/svg" xmlns:xlink="http://www.w3.org/1999/xlink" x="0px" y="0px"
	 width="24px" height="24px" viewBox="0 0 24 24" enable-background="new 0 0 24 24" xml:space="preserve">
<g>
	<g>
		<path fill-rule="evenodd" clip-rule="evenodd" fill="#40AF36" d="M20.511,8.483c0,0-0.01-3.296-0.01-3.465
			c0-1.943-3.806-3.518-8.5-3.518S3.5,3.075,3.5,5.018c0,0.175-0.003,3.483-0.003,3.483S7.728,10.536,12,10.536
			C16.288,10.536,20.511,8.483,20.511,8.483z M12,11.533c-5.908,0-8.505-2.193-8.505-2.193S3.5,12.57,3.5,13.025
			c0,2.013,3.806,3.487,8.5,3.487s8.5-1.475,8.5-3.487c0-0.465-0.002-3.673-0.002-3.673S17.91,11.533,12,11.533z M12,17.533
			c-5.908,0-8.505-2.193-8.505-2.193S3.5,18.57,3.5,19.025c0,2.013,3.806,3.487,8.5,3.487s8.5-1.475,8.5-3.487
			c0-0.465-0.002-3.673-0.002-3.673S17.91,17.533,12,17.533z"/>
	</g>
</g>
</svg>
