<?xml version="1.0" encoding="utf-8"?>
<!-- Generator: Adobe Illustrator 16.0.0, SVG Export Plug-In . SVG Version: 6.00 Build 0)  -->
<!DOCTYPE svg PUBLIC "-//W3C//DTD SVG 1.1//EN" "http://www.w3.org/Graphics/SVG/1.1/DTD/svg11.dtd">
<svg version="1.1" id="图层_1" xmlns="http://www.w3.org/2000/svg" xmlns:xlink="http://www.w3.org/1999/xlink" x="0px" y="0px"
	 width="22.039px" height="21.002px" viewBox="0 0 22.039 21.002" enable-background="new 0 0 22.039 21.002" xml:space="preserve">
<g>
	<g>
		<path fill="#31BD16" d="M18.039,13.004c-0.31,0-0.605,0.043-0.896,0.109l-3.58-6.898C14.097,5.56,14.43,4.733,14.43,3.82
			c0-2.109-1.711-3.82-3.82-3.82C8.501,0,6.79,1.711,6.79,3.82c0,1.18,0.547,2.223,1.39,2.922l-3.297,6.354
			c-0.287-0.064-0.584-0.107-0.892-0.107C1.787,12.989,0,14.776,0,16.981c0,2.203,1.787,3.992,3.991,3.992
			c1.877,0,3.438-1.302,3.865-3.046h6.301c0.419,1.763,1.991,3.074,3.882,3.074c2.209,0,4-1.791,4-4S20.248,13.004,18.039,13.004z
			 M9.688,7.517c0.297,0.073,0.603,0.125,0.921,0.125c0.571,0,1.108-0.136,1.596-0.359l3.404,6.563
			c-0.695,0.535-1.208,1.291-1.434,2.169H7.852c-0.223-0.886-0.735-1.646-1.438-2.187L9.688,7.517z"/>
	</g>
</g>
</svg>
