<?xml version="1.0" encoding="utf-8"?>
<!-- Generator: Adobe Illustrator 17.0.0, SVG Export Plug-In . SVG Version: 6.00 Build 0)  -->
<!DOCTYPE svg PUBLIC "-//W3C//DTD SVG 1.1//EN" "http://www.w3.org/Graphics/SVG/1.1/DTD/svg11.dtd">
<svg version="1.1" id="图层_1" xmlns="http://www.w3.org/2000/svg" xmlns:xlink="http://www.w3.org/1999/xlink" x="0px" y="0px"
	 width="64px" height="64px" viewBox="0 0 64 64" enable-background="new 0 0 64 64" xml:space="preserve">
<polygon fill="#40AF36" points="58,64 6,64 0,59 64,59 "/>
<text transform="matrix(1.4537 0 0 1 18.7471 11.2915)" fill="#22AC38" font-family="'SimHei'" font-size="12">SVF</text>
<rect x="15" y="12" fill="#22AC38" width="34" height="1"/>
<rect x="15" y="14.016" fill="#40AF36" width="4" height="4"/>
<rect x="20.995" y="14.016" fill="#40AF36" width="4" height="4"/>
<rect x="27.01" y="14.016" fill="#40AF36" width="4" height="4"/>
<rect x="32.995" y="14.016" fill="#40AF36" width="4" height="4"/>
<rect x="38.995" y="14.016" fill="#40AF36" width="4" height="4"/>
<rect x="45" y="14.016" fill="#40AF36" width="4" height="4"/>
<rect x="32" y="25" fill="#40AF36" width="1" height="3"/>
<rect x="29" y="28" fill="#40AF36" width="1" height="3"/>
<rect x="28" y="26" fill="#40AF36" width="6" height="1"/>
<rect x="28" y="29" fill="#40AF36" width="6" height="1"/>
<rect x="50" y="25" fill="#40AF36" width="1" height="3"/>
<rect x="47" y="28" fill="#40AF36" width="1" height="3"/>
<rect x="46" y="26" fill="#40AF36" width="6" height="1"/>
<rect x="46" y="29" fill="#40AF36" width="6" height="1"/>
<rect x="14" y="25" fill="#40AF36" width="1" height="3"/>
<rect x="11" y="28" fill="#40AF36" width="1" height="3"/>
<rect x="10" y="26" fill="#40AF36" width="6" height="1"/>
<rect x="10" y="29" fill="#40AF36" width="6" height="1"/>
<path fill="#22AC38" d="M0,0v57h64V0H0z M20,54H8v-1h12V54z M30,47h-2v-2h2V47z M33,47h-2v-2h2V47z M36,47h-2v-2h2V47z M38,34h-1H27
	v-1h10v-8h1V34z M26,32v-8h10v8H26z M56,54H44v-1h12V54z M57,52H43V40h6v-6h-4v-1h4v-1h-5v-8h6.131l-5-5H20.395l-5,5H18v8h-4v1h5v-8
	h1v9h-1h-5v6h7v12H7V40h6v-6H9v-1h4v-1H8v-8h6.02L14,23.98L18.98,19H14V2h36v17h-3.455l4.98,4.98L51.506,24H54v8h-4v1h5v-8h1v9h-1
	h-5v6h7V52z"/>
<polygon fill="#40AF36" points="11.029,51.042 13.512,45.708 15.996,51.042 "/>
<circle fill="#40AF36" cx="13.512" cy="45.658" r="2"/>
<text transform="matrix(1 0 0 1 7.064 48.0337)" fill="#40AF36" font-family="'SimHei'" font-size="8">(</text>
<text transform="matrix(1 0 0 1 8.8556 47.3667)" fill="#40AF36" font-family="'SimHei'" font-size="6">(</text>
<text transform="matrix(-1 0 0 1 18.1777 47.375)" fill="#40AF36" font-family="'SimHei'" font-size="6">(</text>
<text transform="matrix(-1 0 0 1 19.9707 47.916)" fill="#40AF36" font-family="'SimHei'" font-size="8">(</text>
<polygon fill="#40AF36" points="47.029,51.042 49.512,45.708 51.996,51.042 "/>
<circle fill="#40AF36" cx="49.512" cy="45.658" r="2"/>
<text transform="matrix(1 0 0 1 43.064 48.0337)" fill="#40AF36" font-family="'SimHei'" font-size="8">(</text>
<text transform="matrix(1 0 0 1 44.8556 47.3667)" fill="#40AF36" font-family="'SimHei'" font-size="6">(</text>
<text transform="matrix(-1 0 0 1 55.9717 47.916)" fill="#40AF36" font-family="'SimHei'" font-size="8">(</text>
<text transform="matrix(-1 0 0 1 54.1768 47.375)" fill="#40AF36" font-family="'SimHei'" font-size="6">(</text>
</svg>
