<?xml version="1.0" encoding="utf-8"?>
<!-- Generator: Adobe Illustrator 16.0.0, SVG Export Plug-In . SVG Version: 6.00 Build 0)  -->
<!DOCTYPE svg PUBLIC "-//W3C//DTD SVG 1.1//EN" "http://www.w3.org/Graphics/SVG/1.1/DTD/svg11.dtd">
<svg version="1.1" id="图层_1" xmlns="http://www.w3.org/2000/svg" xmlns:xlink="http://www.w3.org/1999/xlink" x="0px" y="0px"
	 width="24px" height="24px" viewBox="0 0 24 24" enable-background="new 0 0 24 24" xml:space="preserve">
<g>
	<g>
		<path fill-rule="evenodd" clip-rule="evenodd" fill="#40AF36" d="M1.491,19.508l3.018,3.99h14.979l3.018-3.99H1.491z M22.5,1.492
			H1.498v17.006H22.5V1.492z M8.5,14.469H7.51l-0.01,1h-1v-1h0.005v-0.004H3.468v-0.961h3.037V13.5H6.5v-1h1l-0.011,1H8.5V14.469z
			 M8.5,10.469H7.51l-0.01,1h-1v-1h0.005v-0.004H3.468V9.504h3.037V9.5H6.5v-1h1v0.999l1,0.001V10.469z M8.5,6.469H7.542l-0.042,1
			h-1v-1h0.005V6.465H3.468V5.504h3.037V5.5H6.5v-1h1v0.999l1,0.001V6.469z M12.5,15.5c-1.657,0-3-0.896-3-2
			c0-0.87,0.837-1.602,2-1.877V4.5h2v0.667l1,0.333v1h-1L13.938,8L13.5,8.938l0.75,1l-0.75,1v0.685c1.162,0.275,2,1.008,2,1.877
			C15.5,14.604,14.156,15.5,12.5,15.5z M20.5,13.5l-3,2v-11l3,2V13.5z M12.5,12.5c-0.552,0-1,0.447-1,1s0.448,1,1,1
			c0.553,0,1-0.447,1-1S13.053,12.5,12.5,12.5z"/>
	</g>
</g>
</svg>
