<?xml version="1.0" encoding="utf-8"?>
<!-- Generator: Adobe Illustrator 16.0.0, SVG Export Plug-In . SVG Version: 6.00 Build 0)  -->
<!DOCTYPE svg PUBLIC "-//W3C//DTD SVG 1.1//EN" "http://www.w3.org/Graphics/SVG/1.1/DTD/svg11.dtd">
<svg version="1.1" id="图层_1" xmlns="http://www.w3.org/2000/svg" xmlns:xlink="http://www.w3.org/1999/xlink" x="0px" y="0px"
	 width="24px" height="24px" viewBox="0 0 24 24" enable-background="new 0 0 24 24" xml:space="preserve">
<g>
	<g>
		<path fill-rule="evenodd" clip-rule="evenodd" fill="#40AF36" d="M12.491,8.468h-6v4h6V8.468z M22.5,1.5h-21v17h21V1.5z
			 M18.494,8.631c0,0-0.009,0.885-0.864,0.885c-0.463,0-1.103-0.031-1.103-0.031l-0.036,0.983h2l0.003,0.959l-1.003,0.041v2.092
			c0.581,0.206,1,0.755,1,1.407c0,0.829-0.672,1.501-1.5,1.501c-0.652,0-1.201-0.419-1.408-1H5.491v-1H8.46l-0.027-1.012
			l-0.941,0.012h-1l-1.004-0.02L5.429,7.468h8.063v6.001h-2l-0.987-0.032l-0.013,1.032h5.092c0.15-0.425,0.483-0.758,0.908-0.908
			v-2.092h-1l0.004-1.934l-1.004-0.066v-1h3v-4h-6v2h-1v-2c0,0,0.301-1.008,1.145-1.008h5.994c0.869,0,0.864,0.884,0.864,0.884
			V8.631z M1.491,19.508l3.018,3.99h14.98l3.017-3.99H1.491z"/>
	</g>
</g>
</svg>
