<?xml version="1.0" encoding="utf-8"?>
<!-- Generator: Adobe Illustrator 16.0.0, SVG Export Plug-In . SVG Version: 6.00 Build 0)  -->
<!DOCTYPE svg PUBLIC "-//W3C//DTD SVG 1.1//EN" "http://www.w3.org/Graphics/SVG/1.1/DTD/svg11.dtd">
<svg version="1.1" id="图层_1" xmlns="http://www.w3.org/2000/svg" xmlns:xlink="http://www.w3.org/1999/xlink" x="0px" y="0px"
	 width="24px" height="24px" viewBox="0 0 24 24" enable-background="new 0 0 24 24" xml:space="preserve">
<g>
	<g>
		<path fill="#40AF36" d="M1.491,19.508l3.018,3.99h14.979l3.018-3.99H1.491z M22.5,1.5h-21v17h21V1.5z M12.005,16.5l-0.055-0.001
			c-0.851-0.025-1.45-0.671-1.425-1.534c0.023-0.849,0.637-1.465,1.459-1.465l0.049,0.001c0.874,0.026,1.467,0.665,1.442,1.554
			C13.451,15.905,12.847,16.5,12.005,16.5z M15.207,9.452c-0.178,0.269-0.566,0.601-1.057,1.007l-0.482,0.334
			c-0.297,0.246-0.475,0.477-0.542,0.704c-0.054,0.179-0.079,0.007-0.083,0.37l-0.001,0.606h-2.061l0.006-0.699
			c0.025-0.764,0.043-0.994,0.34-1.365c0.466-0.582,1.218-1.163,1.262-1.192c0.147-0.118,0.271-0.222,0.583-0.459
			c0.311-0.226,0.313-0.568,0.313-0.813c0-0.705-0.54-1.44-1.521-1.407c-1.096,0.036-1.436,1.349-1.436,1.938H8.406
			C8.461,7.088,9.019,5.642,9.88,5.059c0.541-0.37,1.214-0.559,1.999-0.559c1.028,0,1.895,0.266,2.579,0.791
			C15.148,5.822,15.5,6.729,15.5,7.768C15.5,8.349,15.547,8.956,15.207,9.452z"/>
	</g>
</g>
</svg>
