<?xml version="1.0" encoding="utf-8"?>
<!-- Generator: Adobe Illustrator 16.0.0, SVG Export Plug-In . SVG Version: 6.00 Build 0)  -->
<!DOCTYPE svg PUBLIC "-//W3C//DTD SVG 1.1//EN" "http://www.w3.org/Graphics/SVG/1.1/DTD/svg11.dtd">
<svg version="1.1" id="图层_1" xmlns="http://www.w3.org/2000/svg" xmlns:xlink="http://www.w3.org/1999/xlink" x="0px" y="0px"
	 width="24px" height="24px" viewBox="0 0 24 24" enable-background="new 0 0 24 24" xml:space="preserve">
<g>
	<g>
		<path fill-rule="evenodd" clip-rule="evenodd" fill="#40AF36" d="M16.5,19v-2h-1v2H16.5z M11.5,20c0-0.553-0.448-1-1-1
			s-1,0.447-1,1s0.448,1,1,1S11.5,20.553,11.5,20z M4.5,19h1v-2h-1V19z M5.5,11h-1v2h1V11z M15.5,23h-10v-3h-1v4h12v-4h-1V23z
			 M17.5,2h1V1h1V0h-12l-3,3h13V2z M5.5,8h-1v2h1V8z M5.5,17h10v-1h-10V17z M15.5,16h1v-2h-1V16z M4.5,7h1V5h10v2h1V4h-12V7z
			 M17.5,4v20l3-3V1L17.5,4z M15.5,10h1V8h-1V10z M14.5,7h-8v2h8V7z M15.5,13h1v-2h-1V13z M6.5,12h8v-1h-8V12z M4.5,14v2h1v-2H4.5z"
			/>
	</g>
</g>
</svg>
