<?xml version="1.0" encoding="utf-8"?>
<!-- Generator: Adobe Illustrator 16.0.0, SVG Export Plug-In . SVG Version: 6.00 Build 0)  -->
<!DOCTYPE svg PUBLIC "-//W3C//DTD SVG 1.1//EN" "http://www.w3.org/Graphics/SVG/1.1/DTD/svg11.dtd">
<svg version="1.1" id="图层_1" xmlns="http://www.w3.org/2000/svg" xmlns:xlink="http://www.w3.org/1999/xlink" x="0px" y="0px"
	 width="24px" height="24px" viewBox="0 0 24 24" enable-background="new 0 0 24 24" xml:space="preserve">
<g>
	<g>
		<path fill-rule="evenodd" clip-rule="evenodd" fill="#40AF36" d="M11.979,15.958c5.246,0,9.5-3.134,9.5-7s-4.254-7-9.5-7
			c-5.247,0-9.5,3.134-9.5,7S6.732,15.958,11.979,15.958z M11.969,14.935l-2.463-2.983h1.987V9.962h0.983v1.989h1.989L11.969,14.935
			z M19.443,7.96v0.983h-2.989v1.986l-2.983-2.462l2.983-2.496V7.96H19.443z M11.969,2.95l2.496,2.983h-1.989v1.988h-0.983V5.934
			H9.506L11.969,2.95z M4.483,7.96h2.988V5.972l2.983,2.496L7.471,10.93V8.943H4.483V7.96z M23.221,13.356
			c-1.109,3.187-5.719,5.633-11.242,5.633c-5.571,0-10.214-2.488-11.272-5.715c-0.148,0.529-0.233,1.091-0.233,1.69
			c0,4.974,5.14,8.006,11.481,8.006s11.481-3.032,11.481-8.006C23.436,14.396,23.354,13.862,23.221,13.356z"/>
	</g>
</g>
<g>
	<g>
		
			<ellipse fill="none" stroke="#40AF36" stroke-miterlimit="10" stroke-dasharray="2.0468,2.0468" cx="11.976" cy="9.021" rx="11.012" ry="8.461"/>
	</g>
</g>
</svg>
