<?xml version="1.0" encoding="utf-8"?>
<!-- Generator: Adobe Illustrator 16.0.0, SVG Export Plug-In . SVG Version: 6.00 Build 0)  -->
<!DOCTYPE svg PUBLIC "-//W3C//DTD SVG 1.1//EN" "http://www.w3.org/Graphics/SVG/1.1/DTD/svg11.dtd">
<svg version="1.1" id="图层_1" xmlns="http://www.w3.org/2000/svg" xmlns:xlink="http://www.w3.org/1999/xlink" x="0px" y="0px"
	 width="24px" height="24px" viewBox="0 0 24 24" enable-background="new 0 0 24 24" xml:space="preserve">
<g>
	<g>
		<path fill-rule="evenodd" clip-rule="evenodd" fill="#40AF36" d="M16.5,18.498V17.5h-2v0.998H16.5z M13.5,18.498V17.5h-2v0.998
			H13.5z M4.5,17.5h-2v-1h-1v-1h1v-2h-1v-1h1v-2h-1v-1h1v-2h-1v-1h1v-2h-1v-1h1v-1h2v-1h1v1h2v-1h1v1h2v-1h1v1h2v-1h1v1h2v-1h1v1h2
			v-1h1v1h1v1h1V1.492H1.498v17.006H4.5V17.5z M10.5,18.498V17.5h-2v0.998H10.5z M20.5,3.5h-17v13h17V3.5z M5.489,7.485h9.99
			L15.5,5.5l2.978,2.515L15.5,10.5l-0.021-2.02h-9.99V7.485z M18.5,12.48H8.501L8.479,14.5L5.5,12.015L8.479,9.5l0.021,1.985H18.5
			V12.48z M19.5,18.498V17.5h-2v0.998H19.5z M22.5,16.5h-1v1h-1v0.998h2V16.5z M22.5,4.5h-1v2h1V4.5z M1.491,19.508l3.018,3.99
			h14.979l3.018-3.99H1.491z M22.5,7.5h-1v2h1V7.5z M22.5,13.5h-1v2h1V13.5z M7.5,18.498V17.5h-2v0.998H7.5z M22.5,10.5h-1v2h1V10.5
			z"/>
	</g>
</g>
</svg>
